<svg width="1229" height="210" viewBox="0 0 1229 210" fill="none" xmlns="http://www.w3.org/2000/svg">
<path d="M322.664 4.39999L216.104 206H166.28L148.712 70.352L75.848 206H25.736L0.104001 4.39999H46.184L64.04 146.096L139.784 4.39999H182.984L200.264 147.248L276.296 4.39999H322.664ZM387.302 41.84L378.662 85.616H472.262L465.062 121.904H371.174L361.958 168.56H471.974L464.198 206H308.102L348.422 4.39999H500.774L492.998 41.84H387.302ZM670.665 102.032C679.305 105.488 685.929 110.672 690.537 117.584C695.337 124.304 697.737 132.56 697.737 142.352C697.737 163.28 689.481 179.12 672.969 189.872C656.457 200.624 634.473 206 607.017 206H501.321L541.641 4.39999H638.985C660.681 4.39999 677.385 8.43199 689.097 16.496C700.809 24.368 706.665 35.696 706.665 50.48C706.665 62.768 703.401 73.328 696.873 82.16C690.537 90.8 681.801 97.424 670.665 102.032ZM580.809 39.536L571.305 87.056H618.825C631.113 87.056 640.617 84.656 647.337 79.856C654.249 74.864 657.705 67.76 657.705 58.544C657.705 45.872 647.817 39.536 628.041 39.536H580.809ZM609.897 170.864C622.953 170.864 633.129 168.368 640.425 163.376C647.721 158.384 651.369 151.184 651.369 141.776C651.369 127.952 641.289 121.04 621.129 121.04H564.681L554.889 170.864H609.897ZM964.67 34.64L908.222 87.344C922.238 90.608 933.086 96.656 940.766 105.488C948.446 114.32 952.286 125.264 952.286 138.32C952.286 151.952 948.254 164.144 940.19 174.896C932.318 185.648 921.278 194.096 907.07 200.24C892.862 206.384 876.734 209.456 858.686 209.456C843.902 209.456 830.078 207.44 817.214 203.408C804.35 199.376 793.598 193.616 784.958 186.128L807.422 151.856C814.142 157.616 822.206 162.128 831.614 165.392C841.214 168.656 851.294 170.288 861.854 170.288C875.678 170.288 886.334 167.792 893.822 162.8C901.31 157.616 905.054 150.416 905.054 141.2C905.054 133.904 902.27 128.528 896.702 125.072C891.326 121.424 883.07 119.6 871.934 119.6H850.622L856.67 88.784L906.782 41.84H821.534L829.31 4.39999H970.43L964.67 34.64ZM991.108 208.304C983.428 208.304 977.092 205.904 972.1 201.104C967.108 196.112 964.611 189.872 964.611 182.384C964.611 173.552 967.492 166.352 973.252 160.784C979.012 155.216 986.116 152.432 994.564 152.432C1002.24 152.432 1008.48 154.832 1013.28 159.632C1018.28 164.432 1020.77 170.672 1020.77 178.352C1020.77 186.992 1017.8 194.192 1011.84 199.952C1006.08 205.52 999.172 208.304 991.108 208.304ZM1123.02 209.456C1100.55 209.456 1082.79 202.736 1069.74 189.296C1056.68 175.664 1050.15 156.944 1050.15 133.136C1050.15 108.944 1054.57 86.768 1063.4 66.608C1072.43 46.448 1084.91 30.512 1100.84 18.8C1116.78 6.89599 1134.92 0.943996 1155.27 0.943996C1177.74 0.943996 1195.5 7.75999 1208.55 21.392C1221.61 34.832 1228.14 53.456 1228.14 77.264C1228.14 101.456 1223.63 123.632 1214.6 143.792C1205.77 163.952 1193.39 179.984 1177.45 191.888C1161.51 203.6 1143.37 209.456 1123.02 209.456ZM1127.34 170C1138.47 170 1148.07 165.2 1156.14 155.6C1164.39 146 1170.63 134.096 1174.86 119.888C1179.08 105.488 1181.19 91.664 1181.19 78.416C1181.19 65.552 1178.51 56.048 1173.13 49.904C1167.95 43.568 1160.55 40.4 1150.95 40.4C1139.82 40.4 1130.12 45.2 1121.87 54.8C1113.8 64.4 1107.66 76.4 1103.43 90.8C1099.21 105.008 1097.1 118.736 1097.1 131.984C1097.1 144.848 1099.69 154.448 1104.87 160.784C1110.25 166.928 1117.74 170 1127.34 170Z" fill="white" fill-opacity="0.2"/>
</svg>
