<svg width="1368" height="118" viewBox="0 0 1368 118" fill="none" xmlns="http://www.w3.org/2000/svg">
<path d="M111.52 38.78V56.54H142.624V69.02H111.52V93.5H95.968V26.3H146.752V38.78H111.52ZM200.097 93.5L187.137 74.78H186.369H172.833V93.5H157.281V26.3H186.369C192.321 26.3 197.473 27.292 201.825 29.276C206.241 31.26 209.633 34.076 212.001 37.724C214.369 41.372 215.553 45.692 215.553 50.684C215.553 55.676 214.337 59.996 211.905 63.644C209.537 67.228 206.145 69.98 201.729 71.9L216.801 93.5H200.097ZM199.809 50.684C199.809 46.908 198.593 44.028 196.161 42.044C193.729 39.996 190.177 38.972 185.505 38.972H172.833V62.396H185.505C190.177 62.396 193.729 61.372 196.161 59.324C198.593 57.276 199.809 54.396 199.809 50.684ZM279.906 81.02V93.5H227.874V26.3H278.658V38.78H243.33V53.372H274.53V65.468H243.33V81.02H279.906ZM344.312 81.02V93.5H292.281V26.3H343.065V38.78H307.737V53.372H338.937V65.468H307.737V81.02H344.312ZM383.874 26.3H414.402C421.698 26.3 428.13 27.708 433.698 30.524C439.33 33.276 443.682 37.18 446.754 42.236C449.89 47.292 451.458 53.18 451.458 59.9C451.458 66.62 449.89 72.508 446.754 77.564C443.682 82.62 439.33 86.556 433.698 89.372C428.13 92.124 421.698 93.5 414.402 93.5H383.874V26.3ZM413.634 80.732C420.354 80.732 425.698 78.876 429.666 75.164C433.698 71.388 435.714 66.3 435.714 59.9C435.714 53.5 433.698 48.444 429.666 44.732C425.698 40.956 420.354 39.068 413.634 39.068H399.426V80.732H413.634ZM506.505 79.1H475.305L469.353 93.5H453.417L483.369 26.3H498.729L528.777 93.5H512.457L506.505 79.1ZM501.609 67.292L490.953 41.564L480.297 67.292H501.609ZM546.294 38.972H524.79V26.3H583.35V38.972H561.846V93.5H546.294V38.972ZM632.599 79.1H601.399L595.447 93.5H579.511L609.463 26.3H624.823L654.871 93.5H638.551L632.599 79.1ZM627.703 67.292L617.047 41.564L606.391 67.292H627.703ZM750.183 93.5L750.087 53.18L730.311 86.396H723.303L703.623 54.044V93.5H689.031V26.3H701.895L727.047 68.06L751.815 26.3H764.583L764.775 93.5H750.183ZM813.262 94.652C806.286 94.652 799.982 93.148 794.35 90.14C788.782 87.132 784.398 83.004 781.198 77.756C778.062 72.444 776.494 66.492 776.494 59.9C776.494 53.308 778.062 47.388 781.198 42.14C784.398 36.828 788.782 32.668 794.35 29.66C799.982 26.652 806.286 25.148 813.262 25.148C820.238 25.148 826.51 26.652 832.078 29.66C837.646 32.668 842.03 36.828 845.23 42.14C848.43 47.388 850.03 53.308 850.03 59.9C850.03 66.492 848.43 72.444 845.23 77.756C842.03 83.004 837.646 87.132 832.078 90.14C826.51 93.148 820.238 94.652 813.262 94.652ZM813.262 81.404C817.23 81.404 820.814 80.508 824.014 78.716C827.214 76.86 829.71 74.3 831.502 71.036C833.358 67.772 834.286 64.06 834.286 59.9C834.286 55.74 833.358 52.028 831.502 48.764C829.71 45.5 827.214 42.972 824.014 41.18C820.814 39.324 817.23 38.396 813.262 38.396C809.294 38.396 805.71 39.324 802.51 41.18C799.31 42.972 796.782 45.5 794.926 48.764C793.134 52.028 792.238 55.74 792.238 59.9C792.238 64.06 793.134 67.772 794.926 71.036C796.782 74.3 799.31 76.86 802.51 78.716C805.71 80.508 809.294 81.404 813.262 81.404ZM924.076 26.3L894.988 93.5H879.628L850.636 26.3H867.436L887.884 74.3L908.62 26.3H924.076ZM981.719 81.02V93.5H929.687V26.3H980.471V38.78H945.143V53.372H976.343V65.468H945.143V81.02H981.719ZM1055.25 93.5L1055.15 53.18L1035.37 86.396H1028.37L1008.69 54.044V93.5H994.093V26.3H1006.96L1032.11 68.06L1056.88 26.3H1069.65L1069.84 93.5H1055.25ZM1137.81 81.02V93.5H1085.78V26.3H1136.56V38.78H1101.24V53.372H1132.44V65.468H1101.24V81.02H1137.81ZM1211.82 26.3V93.5H1199.05L1165.55 52.7V93.5H1150.19V26.3H1163.05L1196.46 67.1V26.3H1211.82ZM1241.64 38.972H1220.13V26.3H1278.69V38.972H1257.19V93.5H1241.64V38.972Z" fill="#202020"/>
<path d="M-59.59 102.24V105.57H-53.758V107.91H-59.59V112.5H-62.506V99.9H-52.984V102.24H-59.59ZM-42.9819 112.5L-45.4119 108.99H-45.5559H-48.0939V112.5H-51.0099V99.9H-45.5559C-44.4399 99.9 -43.4739 100.086 -42.6579 100.458C-41.8299 100.83 -41.1939 101.358 -40.7499 102.042C-40.3059 102.726 -40.0839 103.536 -40.0839 104.472C-40.0839 105.408 -40.3119 106.218 -40.7679 106.902C-41.2119 107.574 -41.8479 108.09 -42.6759 108.45L-39.8499 112.5H-42.9819ZM-43.0359 104.472C-43.0359 103.764 -43.2639 103.224 -43.7199 102.852C-44.1759 102.468 -44.8419 102.276 -45.7179 102.276H-48.0939V106.668H-45.7179C-44.8419 106.668 -44.1759 106.476 -43.7199 106.092C-43.2639 105.708 -43.0359 105.168 -43.0359 104.472ZM-28.0176 110.16V112.5H-37.7736V99.9H-28.2516V102.24H-34.8756V104.976H-29.0256V107.244H-34.8756V110.16H-28.0176ZM-15.9414 110.16V112.5H-25.6974V99.9H-16.1754V102.24H-22.7994V104.976H-16.9494V107.244H-22.7994V110.16H-15.9414ZM-8.52358 99.9H-2.79958C-1.43158 99.9 -0.225577 100.164 0.818423 100.692C1.87442 101.208 2.69042 101.94 3.26642 102.888C3.85442 103.836 4.14842 104.94 4.14842 106.2C4.14842 107.46 3.85442 108.564 3.26642 109.512C2.69042 110.46 1.87442 111.198 0.818423 111.726C-0.225577 112.242 -1.43158 112.5 -2.79958 112.5H-8.52358V99.9ZM-2.94358 110.106C-1.68358 110.106 -0.681578 109.758 0.0624219 109.062C0.818422 108.354 1.19642 107.4 1.19642 106.2C1.19642 105 0.818422 104.052 0.0624219 103.356C-0.681578 102.648 -1.68358 102.294 -2.94358 102.294H-5.60758V110.106H-2.94358ZM14.4697 109.8H8.61973L7.50373 112.5H4.51573L10.1317 99.9H13.0117L18.6457 112.5H15.5857L14.4697 109.8ZM13.5517 107.586L11.5537 102.762L9.55573 107.586H13.5517ZM21.9302 102.276H17.8982V99.9H28.8782V102.276H24.8462V112.5H21.9302V102.276ZM38.1123 109.8H32.2623L31.1463 112.5H28.1583L33.7743 99.9H36.6543L42.2883 112.5H39.2283L38.1123 109.8ZM37.1943 107.586L35.1963 102.762L33.1983 107.586H37.1943ZM60.1592 112.5L60.1412 104.94L56.4332 111.168H55.1192L51.4292 105.102V112.5H48.6932V99.9H51.1052L55.8212 107.73L60.4652 99.9H62.8592L62.8952 112.5H60.1592ZM71.9866 112.716C70.6786 112.716 69.4966 112.434 68.4406 111.87C67.3966 111.306 66.5746 110.532 65.9746 109.548C65.3866 108.552 65.0926 107.436 65.0926 106.2C65.0926 104.964 65.3866 103.854 65.9746 102.87C66.5746 101.874 67.3966 101.094 68.4406 100.53C69.4966 99.966 70.6786 99.684 71.9866 99.684C73.2946 99.684 74.4706 99.966 75.5146 100.53C76.5586 101.094 77.3806 101.874 77.9806 102.87C78.5806 103.854 78.8806 104.964 78.8806 106.2C78.8806 107.436 78.5806 108.552 77.9806 109.548C77.3806 110.532 76.5586 111.306 75.5146 111.87C74.4706 112.434 73.2946 112.716 71.9866 112.716ZM71.9866 110.232C72.7306 110.232 73.4026 110.064 74.0026 109.728C74.6026 109.38 75.0706 108.9 75.4066 108.288C75.7546 107.676 75.9286 106.98 75.9286 106.2C75.9286 105.42 75.7546 104.724 75.4066 104.112C75.0706 103.5 74.6026 103.026 74.0026 102.69C73.4026 102.342 72.7306 102.168 71.9866 102.168C71.2426 102.168 70.5706 102.342 69.9706 102.69C69.3706 103.026 68.8966 103.5 68.5486 104.112C68.2126 104.724 68.0446 105.42 68.0446 106.2C68.0446 106.98 68.2126 107.676 68.5486 108.288C68.8966 108.9 69.3706 109.38 69.9706 109.728C70.5706 110.064 71.2426 110.232 71.9866 110.232ZM92.7643 99.9L87.3103 112.5H84.4303L78.9942 99.9H82.1443L85.9783 108.9L89.8663 99.9H92.7643ZM103.572 110.16V112.5H93.8163V99.9H103.338V102.24H96.7143V104.976H102.564V107.244H96.7143V110.16H103.572ZM117.358 112.5L117.34 104.94L113.632 111.168H112.318L108.628 105.102V112.5H105.892V99.9H108.304L113.02 107.73L117.664 99.9H120.058L120.094 112.5H117.358ZM132.84 110.16V112.5H123.084V99.9H132.606V102.24H125.982V104.976H131.832V107.244H125.982V110.16H132.84ZM146.716 99.9V112.5H144.322L138.04 104.85V112.5H135.16V99.9H137.572L143.836 107.55V99.9H146.716ZM152.307 102.276H148.275V99.9H159.255V102.276H155.223V112.5H152.307V102.276Z" fill="#202020"/>
<path d="M164.41 102.24V105.57H170.242V107.91H164.41V112.5H161.494V99.9H171.016V102.24H164.41ZM181.018 112.5L178.588 108.99H178.444H175.906V112.5H172.99V99.9H178.444C179.56 99.9 180.526 100.086 181.342 100.458C182.17 100.83 182.806 101.358 183.25 102.042C183.694 102.726 183.916 103.536 183.916 104.472C183.916 105.408 183.688 106.218 183.232 106.902C182.788 107.574 182.152 108.09 181.324 108.45L184.15 112.5H181.018ZM180.964 104.472C180.964 103.764 180.736 103.224 180.28 102.852C179.824 102.468 179.158 102.276 178.282 102.276H175.906V106.668H178.282C179.158 106.668 179.824 106.476 180.28 106.092C180.736 105.708 180.964 105.168 180.964 104.472ZM195.982 110.16V112.5H186.226V99.9H195.748V102.24H189.124V104.976H194.974V107.244H189.124V110.16H195.982ZM208.059 110.16V112.5H198.303V99.9H207.825V102.24H201.201V104.976H207.051V107.244H201.201V110.16H208.059ZM215.476 99.9H221.2C222.568 99.9 223.774 100.164 224.818 100.692C225.874 101.208 226.69 101.94 227.266 102.888C227.854 103.836 228.148 104.94 228.148 106.2C228.148 107.46 227.854 108.564 227.266 109.512C226.69 110.46 225.874 111.198 224.818 111.726C223.774 112.242 222.568 112.5 221.2 112.5H215.476V99.9ZM221.056 110.106C222.316 110.106 223.318 109.758 224.062 109.062C224.818 108.354 225.196 107.4 225.196 106.2C225.196 105 224.818 104.052 224.062 103.356C223.318 102.648 222.316 102.294 221.056 102.294H218.392V110.106H221.056ZM238.47 109.8H232.62L231.504 112.5H228.516L234.132 99.9H237.012L242.646 112.5H239.586L238.47 109.8ZM237.552 107.586L235.554 102.762L233.556 107.586H237.552ZM245.93 102.276H241.898V99.9H252.878V102.276H248.846V112.5H245.93V102.276ZM262.112 109.8H256.262L255.146 112.5H252.158L257.774 99.9H260.654L266.288 112.5H263.228L262.112 109.8ZM261.194 107.586L259.196 102.762L257.198 107.586H261.194ZM284.159 112.5L284.141 104.94L280.433 111.168H279.119L275.429 105.102V112.5H272.693V99.9H275.105L279.821 107.73L284.465 99.9H286.859L286.895 112.5H284.159ZM295.987 112.716C294.679 112.716 293.497 112.434 292.441 111.87C291.397 111.306 290.575 110.532 289.975 109.548C289.387 108.552 289.093 107.436 289.093 106.2C289.093 104.964 289.387 103.854 289.975 102.87C290.575 101.874 291.397 101.094 292.441 100.53C293.497 99.966 294.679 99.684 295.987 99.684C297.295 99.684 298.471 99.966 299.515 100.53C300.559 101.094 301.381 101.874 301.981 102.87C302.581 103.854 302.881 104.964 302.881 106.2C302.881 107.436 302.581 108.552 301.981 109.548C301.381 110.532 300.559 111.306 299.515 111.87C298.471 112.434 297.295 112.716 295.987 112.716ZM295.987 110.232C296.731 110.232 297.403 110.064 298.003 109.728C298.603 109.38 299.071 108.9 299.407 108.288C299.755 107.676 299.929 106.98 299.929 106.2C299.929 105.42 299.755 104.724 299.407 104.112C299.071 103.5 298.603 103.026 298.003 102.69C297.403 102.342 296.731 102.168 295.987 102.168C295.243 102.168 294.571 102.342 293.971 102.69C293.371 103.026 292.897 103.5 292.549 104.112C292.213 104.724 292.045 105.42 292.045 106.2C292.045 106.98 292.213 107.676 292.549 108.288C292.897 108.9 293.371 109.38 293.971 109.728C294.571 110.064 295.243 110.232 295.987 110.232ZM316.764 99.9L311.31 112.5H308.43L302.994 99.9H306.144L309.978 108.9L313.866 99.9H316.764ZM327.572 110.16V112.5H317.816V99.9H327.338V102.24H320.714V104.976H326.564V107.244H320.714V110.16H327.572ZM341.358 112.5L341.34 104.94L337.632 111.168H336.318L332.628 105.102V112.5H329.892V99.9H332.304L337.02 107.73L341.664 99.9H344.058L344.094 112.5H341.358ZM356.84 110.16V112.5H347.084V99.9H356.606V102.24H349.982V104.976H355.832V107.244H349.982V110.16H356.84ZM370.716 99.9V112.5H368.322L362.04 104.85V112.5H359.16V99.9H361.572L367.836 107.55V99.9H370.716ZM376.307 102.276H372.275V99.9H383.255V102.276H379.223V112.5H376.307V102.276Z" fill="#202020"/>
<path d="M-131.59 7.24V10.57H-125.758V12.91H-131.59V17.5H-134.506V4.9H-124.984V7.24H-131.59ZM-114.982 17.5L-117.412 13.99H-117.556H-120.094V17.5H-123.01V4.9H-117.556C-116.44 4.9 -115.474 5.086 -114.658 5.458C-113.83 5.83 -113.194 6.358 -112.75 7.042C-112.306 7.726 -112.084 8.536 -112.084 9.472C-112.084 10.408 -112.312 11.218 -112.768 11.902C-113.212 12.574 -113.848 13.09 -114.676 13.45L-111.85 17.5H-114.982ZM-115.036 9.472C-115.036 8.764 -115.264 8.224 -115.72 7.852C-116.176 7.468 -116.842 7.276 -117.718 7.276H-120.094V11.668H-117.718C-116.842 11.668 -116.176 11.476 -115.72 11.092C-115.264 10.708 -115.036 10.168 -115.036 9.472ZM-100.018 15.16V17.5H-109.774V4.9H-100.252V7.24H-106.876V9.976H-101.026V12.244H-106.876V15.16H-100.018ZM-87.9414 15.16V17.5H-97.6974V4.9H-88.1754V7.24H-94.7994V9.976H-88.9494V12.244H-94.7994V15.16H-87.9414ZM-80.5236 4.9H-74.7996C-73.4316 4.9 -72.2256 5.164 -71.1816 5.692C-70.1256 6.208 -69.3096 6.94 -68.7336 7.888C-68.1456 8.836 -67.8516 9.94 -67.8516 11.2C-67.8516 12.46 -68.1456 13.564 -68.7336 14.512C-69.3096 15.46 -70.1256 16.198 -71.1816 16.726C-72.2256 17.242 -73.4316 17.5 -74.7996 17.5H-80.5236V4.9ZM-74.9436 15.106C-73.6836 15.106 -72.6816 14.758 -71.9376 14.062C-71.1816 13.354 -70.8036 12.4 -70.8036 11.2C-70.8036 10 -71.1816 9.052 -71.9376 8.356C-72.6816 7.648 -73.6836 7.294 -74.9436 7.294H-77.6076V15.106H-74.9436ZM-57.5303 14.8H-63.3803L-64.4963 17.5H-67.4843L-61.8683 4.9H-58.9883L-53.3543 17.5H-56.4143L-57.5303 14.8ZM-58.4483 12.586L-60.4463 7.762L-62.4443 12.586H-58.4483ZM-50.0698 7.276H-54.1018V4.9H-43.1218V7.276H-47.1538V17.5H-50.0698V7.276ZM-33.8877 14.8H-39.7377L-40.8537 17.5H-43.8417L-38.2257 4.9H-35.3457L-29.7117 17.5H-32.7717L-33.8877 14.8ZM-34.8057 12.586L-36.8037 7.762L-38.8017 12.586H-34.8057ZM-11.8408 17.5L-11.8588 9.94L-15.5668 16.168H-16.8808L-20.5708 10.102V17.5H-23.3068V4.9H-20.8948L-16.1788 12.73L-11.5348 4.9H-9.14078L-9.10478 17.5H-11.8408ZM-0.0133746 17.716C-1.32137 17.716 -2.50337 17.434 -3.55937 16.87C-4.60337 16.306 -5.42537 15.532 -6.02537 14.548C-6.61337 13.552 -6.90737 12.436 -6.90737 11.2C-6.90737 9.964 -6.61337 8.854 -6.02537 7.87C-5.42537 6.874 -4.60337 6.094 -3.55937 5.53C-2.50337 4.966 -1.32137 4.684 -0.0133746 4.684C1.29463 4.684 2.47063 4.966 3.51463 5.53C4.55863 6.094 5.38063 6.874 5.98063 7.87C6.58063 8.854 6.88063 9.964 6.88063 11.2C6.88063 12.436 6.58063 13.552 5.98063 14.548C5.38063 15.532 4.55863 16.306 3.51463 16.87C2.47063 17.434 1.29463 17.716 -0.0133746 17.716ZM-0.0133746 15.232C0.730625 15.232 1.40263 15.064 2.00263 14.728C2.60263 14.38 3.07063 13.9 3.40663 13.288C3.75463 12.676 3.92863 11.98 3.92863 11.2C3.92863 10.42 3.75463 9.724 3.40663 9.112C3.07063 8.5 2.60263 8.026 2.00263 7.69C1.40263 7.342 0.730625 7.168 -0.0133746 7.168C-0.757375 7.168 -1.42937 7.342 -2.02937 7.69C-2.62937 8.026 -3.10337 8.5 -3.45137 9.112C-3.78737 9.724 -3.95537 10.42 -3.95537 11.2C-3.95537 11.98 -3.78737 12.676 -3.45137 13.288C-3.10337 13.9 -2.62937 14.38 -2.02937 14.728C-1.42937 15.064 -0.757375 15.232 -0.0133746 15.232ZM20.7643 4.9L15.3103 17.5H12.4303L6.99425 4.9H10.1443L13.9783 13.9L17.8663 4.9H20.7643ZM31.5723 15.16V17.5H21.8163V4.9H31.3383V7.24H24.7143V9.976H30.5643V12.244H24.7143V15.16H31.5723ZM45.3584 17.5L45.3404 9.94L41.6324 16.168H40.3184L36.6284 10.102V17.5H33.8924V4.9H36.3044L41.0204 12.73L45.6644 4.9H48.0584L48.0944 17.5H45.3584ZM60.8398 15.16V17.5H51.0838V4.9H60.6058V7.24H53.9818V9.976H59.8318V12.244H53.9818V15.16H60.8398ZM74.716 4.9V17.5H72.322L66.04 9.85V17.5H63.16V4.9H65.572L71.836 12.55V4.9H74.716ZM80.3071 7.276H76.2751V4.9H87.2551V7.276H83.2231V17.5H80.3071V7.276Z" fill="#202020"/>
<path d="M92.41 7.24V10.57H98.242V12.91H92.41V17.5H89.494V4.9H99.016V7.24H92.41ZM109.018 17.5L106.588 13.99H106.444H103.906V17.5H100.99V4.9H106.444C107.56 4.9 108.526 5.086 109.342 5.458C110.17 5.83 110.806 6.358 111.25 7.042C111.694 7.726 111.916 8.536 111.916 9.472C111.916 10.408 111.688 11.218 111.232 11.902C110.788 12.574 110.152 13.09 109.324 13.45L112.15 17.5H109.018ZM108.964 9.472C108.964 8.764 108.736 8.224 108.28 7.852C107.824 7.468 107.158 7.276 106.282 7.276H103.906V11.668H106.282C107.158 11.668 107.824 11.476 108.28 11.092C108.736 10.708 108.964 10.168 108.964 9.472ZM123.982 15.16V17.5H114.226V4.9H123.748V7.24H117.124V9.976H122.974V12.244H117.124V15.16H123.982ZM136.059 15.16V17.5H126.303V4.9H135.825V7.24H129.201V9.976H135.051V12.244H129.201V15.16H136.059ZM143.476 4.9H149.2C150.568 4.9 151.774 5.164 152.818 5.692C153.874 6.208 154.69 6.94 155.266 7.888C155.854 8.836 156.148 9.94 156.148 11.2C156.148 12.46 155.854 13.564 155.266 14.512C154.69 15.46 153.874 16.198 152.818 16.726C151.774 17.242 150.568 17.5 149.2 17.5H143.476V4.9ZM149.056 15.106C150.316 15.106 151.318 14.758 152.062 14.062C152.818 13.354 153.196 12.4 153.196 11.2C153.196 10 152.818 9.052 152.062 8.356C151.318 7.648 150.316 7.294 149.056 7.294H146.392V15.106H149.056ZM166.47 14.8H160.62L159.504 17.5H156.516L162.132 4.9H165.012L170.646 17.5H167.586L166.47 14.8ZM165.552 12.586L163.554 7.762L161.556 12.586H165.552ZM173.93 7.276H169.898V4.9H180.878V7.276H176.846V17.5H173.93V7.276ZM190.112 14.8H184.262L183.146 17.5H180.158L185.774 4.9H188.654L194.288 17.5H191.228L190.112 14.8ZM189.194 12.586L187.196 7.762L185.198 12.586H189.194ZM212.159 17.5L212.141 9.94L208.433 16.168H207.119L203.429 10.102V17.5H200.693V4.9H203.105L207.821 12.73L212.465 4.9H214.859L214.895 17.5H212.159ZM223.987 17.716C222.679 17.716 221.497 17.434 220.441 16.87C219.397 16.306 218.575 15.532 217.975 14.548C217.387 13.552 217.093 12.436 217.093 11.2C217.093 9.964 217.387 8.854 217.975 7.87C218.575 6.874 219.397 6.094 220.441 5.53C221.497 4.966 222.679 4.684 223.987 4.684C225.295 4.684 226.471 4.966 227.515 5.53C228.559 6.094 229.381 6.874 229.981 7.87C230.581 8.854 230.881 9.964 230.881 11.2C230.881 12.436 230.581 13.552 229.981 14.548C229.381 15.532 228.559 16.306 227.515 16.87C226.471 17.434 225.295 17.716 223.987 17.716ZM223.987 15.232C224.731 15.232 225.403 15.064 226.003 14.728C226.603 14.38 227.071 13.9 227.407 13.288C227.755 12.676 227.929 11.98 227.929 11.2C227.929 10.42 227.755 9.724 227.407 9.112C227.071 8.5 226.603 8.026 226.003 7.69C225.403 7.342 224.731 7.168 223.987 7.168C223.243 7.168 222.571 7.342 221.971 7.69C221.371 8.026 220.897 8.5 220.549 9.112C220.213 9.724 220.045 10.42 220.045 11.2C220.045 11.98 220.213 12.676 220.549 13.288C220.897 13.9 221.371 14.38 221.971 14.728C222.571 15.064 223.243 15.232 223.987 15.232ZM244.764 4.9L239.31 17.5H236.43L230.994 4.9H234.144L237.978 13.9L241.866 4.9H244.764ZM255.572 15.16V17.5H245.816V4.9H255.338V7.24H248.714V9.976H254.564V12.244H248.714V15.16H255.572ZM269.358 17.5L269.34 9.94L265.632 16.168H264.318L260.628 10.102V17.5H257.892V4.9H260.304L265.02 12.73L269.664 4.9H272.058L272.094 17.5H269.358ZM284.84 15.16V17.5H275.084V4.9H284.606V7.24H277.982V9.976H283.832V12.244H277.982V15.16H284.84ZM298.716 4.9V17.5H296.322L290.04 9.85V17.5H287.16V4.9H289.572L295.836 12.55V4.9H298.716ZM304.307 7.276H300.275V4.9H311.255V7.276H307.223V17.5H304.307V7.276Z" fill="#202020"/>
<path d="M316.41 7.24V10.57H322.242V12.91H316.41V17.5H313.494V4.9H323.016V7.24H316.41ZM333.018 17.5L330.588 13.99H330.444H327.906V17.5H324.99V4.9H330.444C331.56 4.9 332.526 5.086 333.342 5.458C334.17 5.83 334.806 6.358 335.25 7.042C335.694 7.726 335.916 8.536 335.916 9.472C335.916 10.408 335.688 11.218 335.232 11.902C334.788 12.574 334.152 13.09 333.324 13.45L336.15 17.5H333.018ZM332.964 9.472C332.964 8.764 332.736 8.224 332.28 7.852C331.824 7.468 331.158 7.276 330.282 7.276H327.906V11.668H330.282C331.158 11.668 331.824 11.476 332.28 11.092C332.736 10.708 332.964 10.168 332.964 9.472ZM347.982 15.16V17.5H338.226V4.9H347.748V7.24H341.124V9.976H346.974V12.244H341.124V15.16H347.982ZM360.059 15.16V17.5H350.303V4.9H359.825V7.24H353.201V9.976H359.051V12.244H353.201V15.16H360.059ZM367.476 4.9H373.2C374.568 4.9 375.774 5.164 376.818 5.692C377.874 6.208 378.69 6.94 379.266 7.888C379.854 8.836 380.148 9.94 380.148 11.2C380.148 12.46 379.854 13.564 379.266 14.512C378.69 15.46 377.874 16.198 376.818 16.726C375.774 17.242 374.568 17.5 373.2 17.5H367.476V4.9ZM373.056 15.106C374.316 15.106 375.318 14.758 376.062 14.062C376.818 13.354 377.196 12.4 377.196 11.2C377.196 10 376.818 9.052 376.062 8.356C375.318 7.648 374.316 7.294 373.056 7.294H370.392V15.106H373.056ZM390.47 14.8H384.62L383.504 17.5H380.516L386.132 4.9H389.012L394.646 17.5H391.586L390.47 14.8ZM389.552 12.586L387.554 7.762L385.556 12.586H389.552ZM397.93 7.276H393.898V4.9H404.878V7.276H400.846V17.5H397.93V7.276ZM414.112 14.8H408.262L407.146 17.5H404.158L409.774 4.9H412.654L418.288 17.5H415.228L414.112 14.8ZM413.194 12.586L411.196 7.762L409.198 12.586H413.194ZM436.159 17.5L436.141 9.94L432.433 16.168H431.119L427.429 10.102V17.5H424.693V4.9H427.105L431.821 12.73L436.465 4.9H438.859L438.895 17.5H436.159ZM447.987 17.716C446.679 17.716 445.497 17.434 444.441 16.87C443.397 16.306 442.575 15.532 441.975 14.548C441.387 13.552 441.093 12.436 441.093 11.2C441.093 9.964 441.387 8.854 441.975 7.87C442.575 6.874 443.397 6.094 444.441 5.53C445.497 4.966 446.679 4.684 447.987 4.684C449.295 4.684 450.471 4.966 451.515 5.53C452.559 6.094 453.381 6.874 453.981 7.87C454.581 8.854 454.881 9.964 454.881 11.2C454.881 12.436 454.581 13.552 453.981 14.548C453.381 15.532 452.559 16.306 451.515 16.87C450.471 17.434 449.295 17.716 447.987 17.716ZM447.987 15.232C448.731 15.232 449.403 15.064 450.003 14.728C450.603 14.38 451.071 13.9 451.407 13.288C451.755 12.676 451.929 11.98 451.929 11.2C451.929 10.42 451.755 9.724 451.407 9.112C451.071 8.5 450.603 8.026 450.003 7.69C449.403 7.342 448.731 7.168 447.987 7.168C447.243 7.168 446.571 7.342 445.971 7.69C445.371 8.026 444.897 8.5 444.549 9.112C444.213 9.724 444.045 10.42 444.045 11.2C444.045 11.98 444.213 12.676 444.549 13.288C444.897 13.9 445.371 14.38 445.971 14.728C446.571 15.064 447.243 15.232 447.987 15.232ZM468.764 4.9L463.31 17.5H460.43L454.994 4.9H458.144L461.978 13.9L465.866 4.9H468.764ZM479.572 15.16V17.5H469.816V4.9H479.338V7.24H472.714V9.976H478.564V12.244H472.714V15.16H479.572ZM493.358 17.5L493.34 9.94L489.632 16.168H488.318L484.628 10.102V17.5H481.892V4.9H484.304L489.02 12.73L493.664 4.9H496.058L496.094 17.5H493.358ZM508.84 15.16V17.5H499.084V4.9H508.606V7.24H501.982V9.976H507.832V12.244H501.982V15.16H508.84ZM522.716 4.9V17.5H520.322L514.04 9.85V17.5H511.16V4.9H513.572L519.836 12.55V4.9H522.716ZM528.307 7.276H524.275V4.9H535.255V7.276H531.223V17.5H528.307V7.276Z" fill="#202020"/>
<path d="M540.41 7.24V10.57H546.242V12.91H540.41V17.5H537.494V4.9H547.016V7.24H540.41ZM557.018 17.5L554.588 13.99H554.444H551.906V17.5H548.99V4.9H554.444C555.56 4.9 556.526 5.086 557.342 5.458C558.17 5.83 558.806 6.358 559.25 7.042C559.694 7.726 559.916 8.536 559.916 9.472C559.916 10.408 559.688 11.218 559.232 11.902C558.788 12.574 558.152 13.09 557.324 13.45L560.15 17.5H557.018ZM556.964 9.472C556.964 8.764 556.736 8.224 556.28 7.852C555.824 7.468 555.158 7.276 554.282 7.276H551.906V11.668H554.282C555.158 11.668 555.824 11.476 556.28 11.092C556.736 10.708 556.964 10.168 556.964 9.472ZM571.982 15.16V17.5H562.226V4.9H571.748V7.24H565.124V9.976H570.974V12.244H565.124V15.16H571.982ZM584.059 15.16V17.5H574.303V4.9H583.825V7.24H577.201V9.976H583.051V12.244H577.201V15.16H584.059ZM591.476 4.9H597.2C598.568 4.9 599.774 5.164 600.818 5.692C601.874 6.208 602.69 6.94 603.266 7.888C603.854 8.836 604.148 9.94 604.148 11.2C604.148 12.46 603.854 13.564 603.266 14.512C602.69 15.46 601.874 16.198 600.818 16.726C599.774 17.242 598.568 17.5 597.2 17.5H591.476V4.9ZM597.056 15.106C598.316 15.106 599.318 14.758 600.062 14.062C600.818 13.354 601.196 12.4 601.196 11.2C601.196 10 600.818 9.052 600.062 8.356C599.318 7.648 598.316 7.294 597.056 7.294H594.392V15.106H597.056ZM614.47 14.8H608.62L607.504 17.5H604.516L610.132 4.9H613.012L618.646 17.5H615.586L614.47 14.8ZM613.552 12.586L611.554 7.762L609.556 12.586H613.552ZM621.93 7.276H617.898V4.9H628.878V7.276H624.846V17.5H621.93V7.276ZM638.112 14.8H632.262L631.146 17.5H628.158L633.774 4.9H636.654L642.288 17.5H639.228L638.112 14.8ZM637.194 12.586L635.196 7.762L633.198 12.586H637.194ZM660.159 17.5L660.141 9.94L656.433 16.168H655.119L651.429 10.102V17.5H648.693V4.9H651.105L655.821 12.73L660.465 4.9H662.859L662.895 17.5H660.159ZM671.987 17.716C670.679 17.716 669.497 17.434 668.441 16.87C667.397 16.306 666.575 15.532 665.975 14.548C665.387 13.552 665.093 12.436 665.093 11.2C665.093 9.964 665.387 8.854 665.975 7.87C666.575 6.874 667.397 6.094 668.441 5.53C669.497 4.966 670.679 4.684 671.987 4.684C673.295 4.684 674.471 4.966 675.515 5.53C676.559 6.094 677.381 6.874 677.981 7.87C678.581 8.854 678.881 9.964 678.881 11.2C678.881 12.436 678.581 13.552 677.981 14.548C677.381 15.532 676.559 16.306 675.515 16.87C674.471 17.434 673.295 17.716 671.987 17.716ZM671.987 15.232C672.731 15.232 673.403 15.064 674.003 14.728C674.603 14.38 675.071 13.9 675.407 13.288C675.755 12.676 675.929 11.98 675.929 11.2C675.929 10.42 675.755 9.724 675.407 9.112C675.071 8.5 674.603 8.026 674.003 7.69C673.403 7.342 672.731 7.168 671.987 7.168C671.243 7.168 670.571 7.342 669.971 7.69C669.371 8.026 668.897 8.5 668.549 9.112C668.213 9.724 668.045 10.42 668.045 11.2C668.045 11.98 668.213 12.676 668.549 13.288C668.897 13.9 669.371 14.38 669.971 14.728C670.571 15.064 671.243 15.232 671.987 15.232ZM692.764 4.9L687.31 17.5H684.43L678.994 4.9H682.144L685.978 13.9L689.866 4.9H692.764ZM703.572 15.16V17.5H693.816V4.9H703.338V7.24H696.714V9.976H702.564V12.244H696.714V15.16H703.572ZM717.358 17.5L717.34 9.94L713.632 16.168H712.318L708.628 10.102V17.5H705.892V4.9H708.304L713.02 12.73L717.664 4.9H720.058L720.094 17.5H717.358ZM732.84 15.16V17.5H723.084V4.9H732.606V7.24H725.982V9.976H731.832V12.244H725.982V15.16H732.84ZM746.716 4.9V17.5H744.322L738.04 9.85V17.5H735.16V4.9H737.572L743.836 12.55V4.9H746.716ZM752.307 7.276H748.275V4.9H759.255V7.276H755.223V17.5H752.307V7.276Z" fill="#202020"/>
<path d="M764.41 7.24V10.57H770.242V12.91H764.41V17.5H761.494V4.9H771.016V7.24H764.41ZM781.018 17.5L778.588 13.99H778.444H775.906V17.5H772.99V4.9H778.444C779.56 4.9 780.526 5.086 781.342 5.458C782.17 5.83 782.806 6.358 783.25 7.042C783.694 7.726 783.916 8.536 783.916 9.472C783.916 10.408 783.688 11.218 783.232 11.902C782.788 12.574 782.152 13.09 781.324 13.45L784.15 17.5H781.018ZM780.964 9.472C780.964 8.764 780.736 8.224 780.28 7.852C779.824 7.468 779.158 7.276 778.282 7.276H775.906V11.668H778.282C779.158 11.668 779.824 11.476 780.28 11.092C780.736 10.708 780.964 10.168 780.964 9.472ZM795.982 15.16V17.5H786.226V4.9H795.748V7.24H789.124V9.976H794.974V12.244H789.124V15.16H795.982ZM808.059 15.16V17.5H798.303V4.9H807.825V7.24H801.201V9.976H807.051V12.244H801.201V15.16H808.059ZM815.476 4.9H821.2C822.568 4.9 823.774 5.164 824.818 5.692C825.874 6.208 826.69 6.94 827.266 7.888C827.854 8.836 828.148 9.94 828.148 11.2C828.148 12.46 827.854 13.564 827.266 14.512C826.69 15.46 825.874 16.198 824.818 16.726C823.774 17.242 822.568 17.5 821.2 17.5H815.476V4.9ZM821.056 15.106C822.316 15.106 823.318 14.758 824.062 14.062C824.818 13.354 825.196 12.4 825.196 11.2C825.196 10 824.818 9.052 824.062 8.356C823.318 7.648 822.316 7.294 821.056 7.294H818.392V15.106H821.056ZM838.47 14.8H832.62L831.504 17.5H828.516L834.132 4.9H837.012L842.646 17.5H839.586L838.47 14.8ZM837.552 12.586L835.554 7.762L833.556 12.586H837.552ZM845.93 7.276H841.898V4.9H852.878V7.276H848.846V17.5H845.93V7.276ZM862.112 14.8H856.262L855.146 17.5H852.158L857.774 4.9H860.654L866.288 17.5H863.228L862.112 14.8ZM861.194 12.586L859.196 7.762L857.198 12.586H861.194ZM884.159 17.5L884.141 9.94L880.433 16.168H879.119L875.429 10.102V17.5H872.693V4.9H875.105L879.821 12.73L884.465 4.9H886.859L886.895 17.5H884.159ZM895.987 17.716C894.679 17.716 893.497 17.434 892.441 16.87C891.397 16.306 890.575 15.532 889.975 14.548C889.387 13.552 889.093 12.436 889.093 11.2C889.093 9.964 889.387 8.854 889.975 7.87C890.575 6.874 891.397 6.094 892.441 5.53C893.497 4.966 894.679 4.684 895.987 4.684C897.295 4.684 898.471 4.966 899.515 5.53C900.559 6.094 901.381 6.874 901.981 7.87C902.581 8.854 902.881 9.964 902.881 11.2C902.881 12.436 902.581 13.552 901.981 14.548C901.381 15.532 900.559 16.306 899.515 16.87C898.471 17.434 897.295 17.716 895.987 17.716ZM895.987 15.232C896.731 15.232 897.403 15.064 898.003 14.728C898.603 14.38 899.071 13.9 899.407 13.288C899.755 12.676 899.929 11.98 899.929 11.2C899.929 10.42 899.755 9.724 899.407 9.112C899.071 8.5 898.603 8.026 898.003 7.69C897.403 7.342 896.731 7.168 895.987 7.168C895.243 7.168 894.571 7.342 893.971 7.69C893.371 8.026 892.897 8.5 892.549 9.112C892.213 9.724 892.045 10.42 892.045 11.2C892.045 11.98 892.213 12.676 892.549 13.288C892.897 13.9 893.371 14.38 893.971 14.728C894.571 15.064 895.243 15.232 895.987 15.232ZM916.764 4.9L911.31 17.5H908.43L902.994 4.9H906.144L909.978 13.9L913.866 4.9H916.764ZM927.572 15.16V17.5H917.816V4.9H927.338V7.24H920.714V9.976H926.564V12.244H920.714V15.16H927.572ZM941.358 17.5L941.34 9.94L937.632 16.168H936.318L932.628 10.102V17.5H929.892V4.9H932.304L937.02 12.73L941.664 4.9H944.058L944.094 17.5H941.358ZM956.84 15.16V17.5H947.084V4.9H956.606V7.24H949.982V9.976H955.832V12.244H949.982V15.16H956.84ZM970.716 4.9V17.5H968.322L962.04 9.85V17.5H959.16V4.9H961.572L967.836 12.55V4.9H970.716ZM976.307 7.276H972.275V4.9H983.255V7.276H979.223V17.5H976.307V7.276Z" fill="#202020"/>
<path d="M988.41 7.24V10.57H994.242V12.91H988.41V17.5H985.494V4.9H995.016V7.24H988.41ZM1005.02 17.5L1002.59 13.99H1002.44H999.906V17.5H996.99V4.9H1002.44C1003.56 4.9 1004.53 5.086 1005.34 5.458C1006.17 5.83 1006.81 6.358 1007.25 7.042C1007.69 7.726 1007.92 8.536 1007.92 9.472C1007.92 10.408 1007.69 11.218 1007.23 11.902C1006.79 12.574 1006.15 13.09 1005.32 13.45L1008.15 17.5H1005.02ZM1004.96 9.472C1004.96 8.764 1004.74 8.224 1004.28 7.852C1003.82 7.468 1003.16 7.276 1002.28 7.276H999.906V11.668H1002.28C1003.16 11.668 1003.82 11.476 1004.28 11.092C1004.74 10.708 1004.96 10.168 1004.96 9.472ZM1019.98 15.16V17.5H1010.23V4.9H1019.75V7.24H1013.12V9.976H1018.97V12.244H1013.12V15.16H1019.98ZM1032.06 15.16V17.5H1022.3V4.9H1031.82V7.24H1025.2V9.976H1031.05V12.244H1025.2V15.16H1032.06ZM1039.48 4.9H1045.2C1046.57 4.9 1047.77 5.164 1048.82 5.692C1049.87 6.208 1050.69 6.94 1051.27 7.888C1051.85 8.836 1052.15 9.94 1052.15 11.2C1052.15 12.46 1051.85 13.564 1051.27 14.512C1050.69 15.46 1049.87 16.198 1048.82 16.726C1047.77 17.242 1046.57 17.5 1045.2 17.5H1039.48V4.9ZM1045.06 15.106C1046.32 15.106 1047.32 14.758 1048.06 14.062C1048.82 13.354 1049.2 12.4 1049.2 11.2C1049.2 10 1048.82 9.052 1048.06 8.356C1047.32 7.648 1046.32 7.294 1045.06 7.294H1042.39V15.106H1045.06ZM1062.47 14.8H1056.62L1055.5 17.5H1052.52L1058.13 4.9H1061.01L1066.65 17.5H1063.59L1062.47 14.8ZM1061.55 12.586L1059.55 7.762L1057.56 12.586H1061.55ZM1069.93 7.276H1065.9V4.9H1076.88V7.276H1072.85V17.5H1069.93V7.276ZM1086.11 14.8H1080.26L1079.15 17.5H1076.16L1081.77 4.9H1084.65L1090.29 17.5H1087.23L1086.11 14.8ZM1085.19 12.586L1083.2 7.762L1081.2 12.586H1085.19ZM1108.16 17.5L1108.14 9.94L1104.43 16.168H1103.12L1099.43 10.102V17.5H1096.69V4.9H1099.11L1103.82 12.73L1108.47 4.9H1110.86L1110.9 17.5H1108.16ZM1119.99 17.716C1118.68 17.716 1117.5 17.434 1116.44 16.87C1115.4 16.306 1114.57 15.532 1113.97 14.548C1113.39 13.552 1113.09 12.436 1113.09 11.2C1113.09 9.964 1113.39 8.854 1113.97 7.87C1114.57 6.874 1115.4 6.094 1116.44 5.53C1117.5 4.966 1118.68 4.684 1119.99 4.684C1121.29 4.684 1122.47 4.966 1123.51 5.53C1124.56 6.094 1125.38 6.874 1125.98 7.87C1126.58 8.854 1126.88 9.964 1126.88 11.2C1126.88 12.436 1126.58 13.552 1125.98 14.548C1125.38 15.532 1124.56 16.306 1123.51 16.87C1122.47 17.434 1121.29 17.716 1119.99 17.716ZM1119.99 15.232C1120.73 15.232 1121.4 15.064 1122 14.728C1122.6 14.38 1123.07 13.9 1123.41 13.288C1123.75 12.676 1123.93 11.98 1123.93 11.2C1123.93 10.42 1123.75 9.724 1123.41 9.112C1123.07 8.5 1122.6 8.026 1122 7.69C1121.4 7.342 1120.73 7.168 1119.99 7.168C1119.24 7.168 1118.57 7.342 1117.97 7.69C1117.37 8.026 1116.9 8.5 1116.55 9.112C1116.21 9.724 1116.04 10.42 1116.04 11.2C1116.04 11.98 1116.21 12.676 1116.55 13.288C1116.9 13.9 1117.37 14.38 1117.97 14.728C1118.57 15.064 1119.24 15.232 1119.99 15.232ZM1140.76 4.9L1135.31 17.5H1132.43L1126.99 4.9H1130.14L1133.98 13.9L1137.87 4.9H1140.76ZM1151.57 15.16V17.5H1141.82V4.9H1151.34V7.24H1144.71V9.976H1150.56V12.244H1144.71V15.16H1151.57ZM1165.36 17.5L1165.34 9.94L1161.63 16.168H1160.32L1156.63 10.102V17.5H1153.89V4.9H1156.3L1161.02 12.73L1165.66 4.9H1168.06L1168.09 17.5H1165.36ZM1180.84 15.16V17.5H1171.08V4.9H1180.61V7.24H1173.98V9.976H1179.83V12.244H1173.98V15.16H1180.84ZM1194.72 4.9V17.5H1192.32L1186.04 9.85V17.5H1183.16V4.9H1185.57L1191.84 12.55V4.9H1194.72ZM1200.31 7.276H1196.28V4.9H1207.26V7.276H1203.22V17.5H1200.31V7.276Z" fill="#202020"/>
<path d="M1212.41 7.24V10.57H1218.24V12.91H1212.41V17.5H1209.49V4.9H1219.02V7.24H1212.41ZM1229.02 17.5L1226.59 13.99H1226.44H1223.91V17.5H1220.99V4.9H1226.44C1227.56 4.9 1228.53 5.086 1229.34 5.458C1230.17 5.83 1230.81 6.358 1231.25 7.042C1231.69 7.726 1231.92 8.536 1231.92 9.472C1231.92 10.408 1231.69 11.218 1231.23 11.902C1230.79 12.574 1230.15 13.09 1229.32 13.45L1232.15 17.5H1229.02ZM1228.96 9.472C1228.96 8.764 1228.74 8.224 1228.28 7.852C1227.82 7.468 1227.16 7.276 1226.28 7.276H1223.91V11.668H1226.28C1227.16 11.668 1227.82 11.476 1228.28 11.092C1228.74 10.708 1228.96 10.168 1228.96 9.472ZM1243.98 15.16V17.5H1234.23V4.9H1243.75V7.24H1237.12V9.976H1242.97V12.244H1237.12V15.16H1243.98ZM1256.06 15.16V17.5H1246.3V4.9H1255.82V7.24H1249.2V9.976H1255.05V12.244H1249.2V15.16H1256.06ZM1263.48 4.9H1269.2C1270.57 4.9 1271.77 5.164 1272.82 5.692C1273.87 6.208 1274.69 6.94 1275.27 7.888C1275.85 8.836 1276.15 9.94 1276.15 11.2C1276.15 12.46 1275.85 13.564 1275.27 14.512C1274.69 15.46 1273.87 16.198 1272.82 16.726C1271.77 17.242 1270.57 17.5 1269.2 17.5H1263.48V4.9ZM1269.06 15.106C1270.32 15.106 1271.32 14.758 1272.06 14.062C1272.82 13.354 1273.2 12.4 1273.2 11.2C1273.2 10 1272.82 9.052 1272.06 8.356C1271.32 7.648 1270.32 7.294 1269.06 7.294H1266.39V15.106H1269.06ZM1286.47 14.8H1280.62L1279.5 17.5H1276.52L1282.13 4.9H1285.01L1290.65 17.5H1287.59L1286.47 14.8ZM1285.55 12.586L1283.55 7.762L1281.56 12.586H1285.55ZM1293.93 7.276H1289.9V4.9H1300.88V7.276H1296.85V17.5H1293.93V7.276ZM1310.11 14.8H1304.26L1303.15 17.5H1300.16L1305.77 4.9H1308.65L1314.29 17.5H1311.23L1310.11 14.8ZM1309.19 12.586L1307.2 7.762L1305.2 12.586H1309.19ZM1332.16 17.5L1332.14 9.94L1328.43 16.168H1327.12L1323.43 10.102V17.5H1320.69V4.9H1323.11L1327.82 12.73L1332.47 4.9H1334.86L1334.9 17.5H1332.16ZM1343.99 17.716C1342.68 17.716 1341.5 17.434 1340.44 16.87C1339.4 16.306 1338.57 15.532 1337.97 14.548C1337.39 13.552 1337.09 12.436 1337.09 11.2C1337.09 9.964 1337.39 8.854 1337.97 7.87C1338.57 6.874 1339.4 6.094 1340.44 5.53C1341.5 4.966 1342.68 4.684 1343.99 4.684C1345.29 4.684 1346.47 4.966 1347.51 5.53C1348.56 6.094 1349.38 6.874 1349.98 7.87C1350.58 8.854 1350.88 9.964 1350.88 11.2C1350.88 12.436 1350.58 13.552 1349.98 14.548C1349.38 15.532 1348.56 16.306 1347.51 16.87C1346.47 17.434 1345.29 17.716 1343.99 17.716ZM1343.99 15.232C1344.73 15.232 1345.4 15.064 1346 14.728C1346.6 14.38 1347.07 13.9 1347.41 13.288C1347.75 12.676 1347.93 11.98 1347.93 11.2C1347.93 10.42 1347.75 9.724 1347.41 9.112C1347.07 8.5 1346.6 8.026 1346 7.69C1345.4 7.342 1344.73 7.168 1343.99 7.168C1343.24 7.168 1342.57 7.342 1341.97 7.69C1341.37 8.026 1340.9 8.5 1340.55 9.112C1340.21 9.724 1340.04 10.42 1340.04 11.2C1340.04 11.98 1340.21 12.676 1340.55 13.288C1340.9 13.9 1341.37 14.38 1341.97 14.728C1342.57 15.064 1343.24 15.232 1343.99 15.232ZM1364.76 4.9L1359.31 17.5H1356.43L1350.99 4.9H1354.14L1357.98 13.9L1361.87 4.9H1364.76ZM1375.57 15.16V17.5H1365.82V4.9H1375.34V7.24H1368.71V9.976H1374.56V12.244H1368.71V15.16H1375.57ZM1389.36 17.5L1389.34 9.94L1385.63 16.168H1384.32L1380.63 10.102V17.5H1377.89V4.9H1380.3L1385.02 12.73L1389.66 4.9H1392.06L1392.09 17.5H1389.36ZM1404.84 15.16V17.5H1395.08V4.9H1404.61V7.24H1397.98V9.976H1403.83V12.244H1397.98V15.16H1404.84ZM1418.72 4.9V17.5H1416.32L1410.04 9.85V17.5H1407.16V4.9H1409.57L1415.84 12.55V4.9H1418.72ZM1424.31 7.276H1420.28V4.9H1431.26V7.276H1427.22V17.5H1424.31V7.276Z" fill="#202020"/>
<path d="M388.41 102.24V105.57H394.242V107.91H388.41V112.5H385.494V99.9H395.016V102.24H388.41ZM405.018 112.5L402.588 108.99H402.444H399.906V112.5H396.99V99.9H402.444C403.56 99.9 404.526 100.086 405.342 100.458C406.17 100.83 406.806 101.358 407.25 102.042C407.694 102.726 407.916 103.536 407.916 104.472C407.916 105.408 407.688 106.218 407.232 106.902C406.788 107.574 406.152 108.09 405.324 108.45L408.15 112.5H405.018ZM404.964 104.472C404.964 103.764 404.736 103.224 404.28 102.852C403.824 102.468 403.158 102.276 402.282 102.276H399.906V106.668H402.282C403.158 106.668 403.824 106.476 404.28 106.092C404.736 105.708 404.964 105.168 404.964 104.472ZM419.982 110.16V112.5H410.226V99.9H419.748V102.24H413.124V104.976H418.974V107.244H413.124V110.16H419.982ZM432.059 110.16V112.5H422.303V99.9H431.825V102.24H425.201V104.976H431.051V107.244H425.201V110.16H432.059ZM439.476 99.9H445.2C446.568 99.9 447.774 100.164 448.818 100.692C449.874 101.208 450.69 101.94 451.266 102.888C451.854 103.836 452.148 104.94 452.148 106.2C452.148 107.46 451.854 108.564 451.266 109.512C450.69 110.46 449.874 111.198 448.818 111.726C447.774 112.242 446.568 112.5 445.2 112.5H439.476V99.9ZM445.056 110.106C446.316 110.106 447.318 109.758 448.062 109.062C448.818 108.354 449.196 107.4 449.196 106.2C449.196 105 448.818 104.052 448.062 103.356C447.318 102.648 446.316 102.294 445.056 102.294H442.392V110.106H445.056ZM462.47 109.8H456.62L455.504 112.5H452.516L458.132 99.9H461.012L466.646 112.5H463.586L462.47 109.8ZM461.552 107.586L459.554 102.762L457.556 107.586H461.552ZM469.93 102.276H465.898V99.9H476.878V102.276H472.846V112.5H469.93V102.276ZM486.112 109.8H480.262L479.146 112.5H476.158L481.774 99.9H484.654L490.288 112.5H487.228L486.112 109.8ZM485.194 107.586L483.196 102.762L481.198 107.586H485.194ZM508.159 112.5L508.141 104.94L504.433 111.168H503.119L499.429 105.102V112.5H496.693V99.9H499.105L503.821 107.73L508.465 99.9H510.859L510.895 112.5H508.159ZM519.987 112.716C518.679 112.716 517.497 112.434 516.441 111.87C515.397 111.306 514.575 110.532 513.975 109.548C513.387 108.552 513.093 107.436 513.093 106.2C513.093 104.964 513.387 103.854 513.975 102.87C514.575 101.874 515.397 101.094 516.441 100.53C517.497 99.966 518.679 99.684 519.987 99.684C521.295 99.684 522.471 99.966 523.515 100.53C524.559 101.094 525.381 101.874 525.981 102.87C526.581 103.854 526.881 104.964 526.881 106.2C526.881 107.436 526.581 108.552 525.981 109.548C525.381 110.532 524.559 111.306 523.515 111.87C522.471 112.434 521.295 112.716 519.987 112.716ZM519.987 110.232C520.731 110.232 521.403 110.064 522.003 109.728C522.603 109.38 523.071 108.9 523.407 108.288C523.755 107.676 523.929 106.98 523.929 106.2C523.929 105.42 523.755 104.724 523.407 104.112C523.071 103.5 522.603 103.026 522.003 102.69C521.403 102.342 520.731 102.168 519.987 102.168C519.243 102.168 518.571 102.342 517.971 102.69C517.371 103.026 516.897 103.5 516.549 104.112C516.213 104.724 516.045 105.42 516.045 106.2C516.045 106.98 516.213 107.676 516.549 108.288C516.897 108.9 517.371 109.38 517.971 109.728C518.571 110.064 519.243 110.232 519.987 110.232ZM540.764 99.9L535.31 112.5H532.43L526.994 99.9H530.144L533.978 108.9L537.866 99.9H540.764ZM551.572 110.16V112.5H541.816V99.9H551.338V102.24H544.714V104.976H550.564V107.244H544.714V110.16H551.572ZM565.358 112.5L565.34 104.94L561.632 111.168H560.318L556.628 105.102V112.5H553.892V99.9H556.304L561.02 107.73L565.664 99.9H568.058L568.094 112.5H565.358ZM580.84 110.16V112.5H571.084V99.9H580.606V102.24H573.982V104.976H579.832V107.244H573.982V110.16H580.84ZM594.716 99.9V112.5H592.322L586.04 104.85V112.5H583.16V99.9H585.572L591.836 107.55V99.9H594.716ZM600.307 102.276H596.275V99.9H607.255V102.276H603.223V112.5H600.307V102.276Z" fill="#202020"/>
<path d="M612.41 102.24V105.57H618.242V107.91H612.41V112.5H609.494V99.9H619.016V102.24H612.41ZM629.018 112.5L626.588 108.99H626.444H623.906V112.5H620.99V99.9H626.444C627.56 99.9 628.526 100.086 629.342 100.458C630.17 100.83 630.806 101.358 631.25 102.042C631.694 102.726 631.916 103.536 631.916 104.472C631.916 105.408 631.688 106.218 631.232 106.902C630.788 107.574 630.152 108.09 629.324 108.45L632.15 112.5H629.018ZM628.964 104.472C628.964 103.764 628.736 103.224 628.28 102.852C627.824 102.468 627.158 102.276 626.282 102.276H623.906V106.668H626.282C627.158 106.668 627.824 106.476 628.28 106.092C628.736 105.708 628.964 105.168 628.964 104.472ZM643.982 110.16V112.5H634.226V99.9H643.748V102.24H637.124V104.976H642.974V107.244H637.124V110.16H643.982ZM656.059 110.16V112.5H646.303V99.9H655.825V102.24H649.201V104.976H655.051V107.244H649.201V110.16H656.059ZM663.476 99.9H669.2C670.568 99.9 671.774 100.164 672.818 100.692C673.874 101.208 674.69 101.94 675.266 102.888C675.854 103.836 676.148 104.94 676.148 106.2C676.148 107.46 675.854 108.564 675.266 109.512C674.69 110.46 673.874 111.198 672.818 111.726C671.774 112.242 670.568 112.5 669.2 112.5H663.476V99.9ZM669.056 110.106C670.316 110.106 671.318 109.758 672.062 109.062C672.818 108.354 673.196 107.4 673.196 106.2C673.196 105 672.818 104.052 672.062 103.356C671.318 102.648 670.316 102.294 669.056 102.294H666.392V110.106H669.056ZM686.47 109.8H680.62L679.504 112.5H676.516L682.132 99.9H685.012L690.646 112.5H687.586L686.47 109.8ZM685.552 107.586L683.554 102.762L681.556 107.586H685.552ZM693.93 102.276H689.898V99.9H700.878V102.276H696.846V112.5H693.93V102.276ZM710.112 109.8H704.262L703.146 112.5H700.158L705.774 99.9H708.654L714.288 112.5H711.228L710.112 109.8ZM709.194 107.586L707.196 102.762L705.198 107.586H709.194ZM732.159 112.5L732.141 104.94L728.433 111.168H727.119L723.429 105.102V112.5H720.693V99.9H723.105L727.821 107.73L732.465 99.9H734.859L734.895 112.5H732.159ZM743.987 112.716C742.679 112.716 741.497 112.434 740.441 111.87C739.397 111.306 738.575 110.532 737.975 109.548C737.387 108.552 737.093 107.436 737.093 106.2C737.093 104.964 737.387 103.854 737.975 102.87C738.575 101.874 739.397 101.094 740.441 100.53C741.497 99.966 742.679 99.684 743.987 99.684C745.295 99.684 746.471 99.966 747.515 100.53C748.559 101.094 749.381 101.874 749.981 102.87C750.581 103.854 750.881 104.964 750.881 106.2C750.881 107.436 750.581 108.552 749.981 109.548C749.381 110.532 748.559 111.306 747.515 111.87C746.471 112.434 745.295 112.716 743.987 112.716ZM743.987 110.232C744.731 110.232 745.403 110.064 746.003 109.728C746.603 109.38 747.071 108.9 747.407 108.288C747.755 107.676 747.929 106.98 747.929 106.2C747.929 105.42 747.755 104.724 747.407 104.112C747.071 103.5 746.603 103.026 746.003 102.69C745.403 102.342 744.731 102.168 743.987 102.168C743.243 102.168 742.571 102.342 741.971 102.69C741.371 103.026 740.897 103.5 740.549 104.112C740.213 104.724 740.045 105.42 740.045 106.2C740.045 106.98 740.213 107.676 740.549 108.288C740.897 108.9 741.371 109.38 741.971 109.728C742.571 110.064 743.243 110.232 743.987 110.232ZM764.764 99.9L759.31 112.5H756.43L750.994 99.9H754.144L757.978 108.9L761.866 99.9H764.764ZM775.572 110.16V112.5H765.816V99.9H775.338V102.24H768.714V104.976H774.564V107.244H768.714V110.16H775.572ZM789.358 112.5L789.34 104.94L785.632 111.168H784.318L780.628 105.102V112.5H777.892V99.9H780.304L785.02 107.73L789.664 99.9H792.058L792.094 112.5H789.358ZM804.84 110.16V112.5H795.084V99.9H804.606V102.24H797.982V104.976H803.832V107.244H797.982V110.16H804.84ZM818.716 99.9V112.5H816.322L810.04 104.85V112.5H807.16V99.9H809.572L815.836 107.55V99.9H818.716ZM824.307 102.276H820.275V99.9H831.255V102.276H827.223V112.5H824.307V102.276Z" fill="#202020"/>
<path d="M836.41 102.24V105.57H842.242V107.91H836.41V112.5H833.494V99.9H843.016V102.24H836.41ZM853.018 112.5L850.588 108.99H850.444H847.906V112.5H844.99V99.9H850.444C851.56 99.9 852.526 100.086 853.342 100.458C854.17 100.83 854.806 101.358 855.25 102.042C855.694 102.726 855.916 103.536 855.916 104.472C855.916 105.408 855.688 106.218 855.232 106.902C854.788 107.574 854.152 108.09 853.324 108.45L856.15 112.5H853.018ZM852.964 104.472C852.964 103.764 852.736 103.224 852.28 102.852C851.824 102.468 851.158 102.276 850.282 102.276H847.906V106.668H850.282C851.158 106.668 851.824 106.476 852.28 106.092C852.736 105.708 852.964 105.168 852.964 104.472ZM867.982 110.16V112.5H858.226V99.9H867.748V102.24H861.124V104.976H866.974V107.244H861.124V110.16H867.982ZM880.059 110.16V112.5H870.303V99.9H879.825V102.24H873.201V104.976H879.051V107.244H873.201V110.16H880.059ZM887.476 99.9H893.2C894.568 99.9 895.774 100.164 896.818 100.692C897.874 101.208 898.69 101.94 899.266 102.888C899.854 103.836 900.148 104.94 900.148 106.2C900.148 107.46 899.854 108.564 899.266 109.512C898.69 110.46 897.874 111.198 896.818 111.726C895.774 112.242 894.568 112.5 893.2 112.5H887.476V99.9ZM893.056 110.106C894.316 110.106 895.318 109.758 896.062 109.062C896.818 108.354 897.196 107.4 897.196 106.2C897.196 105 896.818 104.052 896.062 103.356C895.318 102.648 894.316 102.294 893.056 102.294H890.392V110.106H893.056ZM910.47 109.8H904.62L903.504 112.5H900.516L906.132 99.9H909.012L914.646 112.5H911.586L910.47 109.8ZM909.552 107.586L907.554 102.762L905.556 107.586H909.552ZM917.93 102.276H913.898V99.9H924.878V102.276H920.846V112.5H917.93V102.276ZM934.112 109.8H928.262L927.146 112.5H924.158L929.774 99.9H932.654L938.288 112.5H935.228L934.112 109.8ZM933.194 107.586L931.196 102.762L929.198 107.586H933.194ZM956.159 112.5L956.141 104.94L952.433 111.168H951.119L947.429 105.102V112.5H944.693V99.9H947.105L951.821 107.73L956.465 99.9H958.859L958.895 112.5H956.159ZM967.987 112.716C966.679 112.716 965.497 112.434 964.441 111.87C963.397 111.306 962.575 110.532 961.975 109.548C961.387 108.552 961.093 107.436 961.093 106.2C961.093 104.964 961.387 103.854 961.975 102.87C962.575 101.874 963.397 101.094 964.441 100.53C965.497 99.966 966.679 99.684 967.987 99.684C969.295 99.684 970.471 99.966 971.515 100.53C972.559 101.094 973.381 101.874 973.981 102.87C974.581 103.854 974.881 104.964 974.881 106.2C974.881 107.436 974.581 108.552 973.981 109.548C973.381 110.532 972.559 111.306 971.515 111.87C970.471 112.434 969.295 112.716 967.987 112.716ZM967.987 110.232C968.731 110.232 969.403 110.064 970.003 109.728C970.603 109.38 971.071 108.9 971.407 108.288C971.755 107.676 971.929 106.98 971.929 106.2C971.929 105.42 971.755 104.724 971.407 104.112C971.071 103.5 970.603 103.026 970.003 102.69C969.403 102.342 968.731 102.168 967.987 102.168C967.243 102.168 966.571 102.342 965.971 102.69C965.371 103.026 964.897 103.5 964.549 104.112C964.213 104.724 964.045 105.42 964.045 106.2C964.045 106.98 964.213 107.676 964.549 108.288C964.897 108.9 965.371 109.38 965.971 109.728C966.571 110.064 967.243 110.232 967.987 110.232ZM988.764 99.9L983.31 112.5H980.43L974.994 99.9H978.144L981.978 108.9L985.866 99.9H988.764ZM999.572 110.16V112.5H989.816V99.9H999.338V102.24H992.714V104.976H998.564V107.244H992.714V110.16H999.572ZM1013.36 112.5L1013.34 104.94L1009.63 111.168H1008.32L1004.63 105.102V112.5H1001.89V99.9H1004.3L1009.02 107.73L1013.66 99.9H1016.06L1016.09 112.5H1013.36ZM1028.84 110.16V112.5H1019.08V99.9H1028.61V102.24H1021.98V104.976H1027.83V107.244H1021.98V110.16H1028.84ZM1042.72 99.9V112.5H1040.32L1034.04 104.85V112.5H1031.16V99.9H1033.57L1039.84 107.55V99.9H1042.72ZM1048.31 102.276H1044.28V99.9H1055.26V102.276H1051.22V112.5H1048.31V102.276Z" fill="#202020"/>
<path d="M1060.41 102.24V105.57H1066.24V107.91H1060.41V112.5H1057.49V99.9H1067.02V102.24H1060.41ZM1077.02 112.5L1074.59 108.99H1074.44H1071.91V112.5H1068.99V99.9H1074.44C1075.56 99.9 1076.53 100.086 1077.34 100.458C1078.17 100.83 1078.81 101.358 1079.25 102.042C1079.69 102.726 1079.92 103.536 1079.92 104.472C1079.92 105.408 1079.69 106.218 1079.23 106.902C1078.79 107.574 1078.15 108.09 1077.32 108.45L1080.15 112.5H1077.02ZM1076.96 104.472C1076.96 103.764 1076.74 103.224 1076.28 102.852C1075.82 102.468 1075.16 102.276 1074.28 102.276H1071.91V106.668H1074.28C1075.16 106.668 1075.82 106.476 1076.28 106.092C1076.74 105.708 1076.96 105.168 1076.96 104.472ZM1091.98 110.16V112.5H1082.23V99.9H1091.75V102.24H1085.12V104.976H1090.97V107.244H1085.12V110.16H1091.98ZM1104.06 110.16V112.5H1094.3V99.9H1103.82V102.24H1097.2V104.976H1103.05V107.244H1097.2V110.16H1104.06ZM1111.48 99.9H1117.2C1118.57 99.9 1119.77 100.164 1120.82 100.692C1121.87 101.208 1122.69 101.94 1123.27 102.888C1123.85 103.836 1124.15 104.94 1124.15 106.2C1124.15 107.46 1123.85 108.564 1123.27 109.512C1122.69 110.46 1121.87 111.198 1120.82 111.726C1119.77 112.242 1118.57 112.5 1117.2 112.5H1111.48V99.9ZM1117.06 110.106C1118.32 110.106 1119.32 109.758 1120.06 109.062C1120.82 108.354 1121.2 107.4 1121.2 106.2C1121.2 105 1120.82 104.052 1120.06 103.356C1119.32 102.648 1118.32 102.294 1117.06 102.294H1114.39V110.106H1117.06ZM1134.47 109.8H1128.62L1127.5 112.5H1124.52L1130.13 99.9H1133.01L1138.65 112.5H1135.59L1134.47 109.8ZM1133.55 107.586L1131.55 102.762L1129.56 107.586H1133.55ZM1141.93 102.276H1137.9V99.9H1148.88V102.276H1144.85V112.5H1141.93V102.276ZM1158.11 109.8H1152.26L1151.15 112.5H1148.16L1153.77 99.9H1156.65L1162.29 112.5H1159.23L1158.11 109.8ZM1157.19 107.586L1155.2 102.762L1153.2 107.586H1157.19ZM1180.16 112.5L1180.14 104.94L1176.43 111.168H1175.12L1171.43 105.102V112.5H1168.69V99.9H1171.11L1175.82 107.73L1180.47 99.9H1182.86L1182.9 112.5H1180.16ZM1191.99 112.716C1190.68 112.716 1189.5 112.434 1188.44 111.87C1187.4 111.306 1186.57 110.532 1185.97 109.548C1185.39 108.552 1185.09 107.436 1185.09 106.2C1185.09 104.964 1185.39 103.854 1185.97 102.87C1186.57 101.874 1187.4 101.094 1188.44 100.53C1189.5 99.966 1190.68 99.684 1191.99 99.684C1193.29 99.684 1194.47 99.966 1195.51 100.53C1196.56 101.094 1197.38 101.874 1197.98 102.87C1198.58 103.854 1198.88 104.964 1198.88 106.2C1198.88 107.436 1198.58 108.552 1197.98 109.548C1197.38 110.532 1196.56 111.306 1195.51 111.87C1194.47 112.434 1193.29 112.716 1191.99 112.716ZM1191.99 110.232C1192.73 110.232 1193.4 110.064 1194 109.728C1194.6 109.38 1195.07 108.9 1195.41 108.288C1195.75 107.676 1195.93 106.98 1195.93 106.2C1195.93 105.42 1195.75 104.724 1195.41 104.112C1195.07 103.5 1194.6 103.026 1194 102.69C1193.4 102.342 1192.73 102.168 1191.99 102.168C1191.24 102.168 1190.57 102.342 1189.97 102.69C1189.37 103.026 1188.9 103.5 1188.55 104.112C1188.21 104.724 1188.04 105.42 1188.04 106.2C1188.04 106.98 1188.21 107.676 1188.55 108.288C1188.9 108.9 1189.37 109.38 1189.97 109.728C1190.57 110.064 1191.24 110.232 1191.99 110.232ZM1212.76 99.9L1207.31 112.5H1204.43L1198.99 99.9H1202.14L1205.98 108.9L1209.87 99.9H1212.76ZM1223.57 110.16V112.5H1213.82V99.9H1223.34V102.24H1216.71V104.976H1222.56V107.244H1216.71V110.16H1223.57ZM1237.36 112.5L1237.34 104.94L1233.63 111.168H1232.32L1228.63 105.102V112.5H1225.89V99.9H1228.3L1233.02 107.73L1237.66 99.9H1240.06L1240.09 112.5H1237.36ZM1252.84 110.16V112.5H1243.08V99.9H1252.61V102.24H1245.98V104.976H1251.83V107.244H1245.98V110.16H1252.84ZM1266.72 99.9V112.5H1264.32L1258.04 104.85V112.5H1255.16V99.9H1257.57L1263.84 107.55V99.9H1266.72ZM1272.31 102.276H1268.28V99.9H1279.26V102.276H1275.22V112.5H1272.31V102.276Z" fill="#202020"/>
<path d="M1284.41 102.24V105.57H1290.24V107.91H1284.41V112.5H1281.49V99.9H1291.02V102.24H1284.41ZM1301.02 112.5L1298.59 108.99H1298.44H1295.91V112.5H1292.99V99.9H1298.44C1299.56 99.9 1300.53 100.086 1301.34 100.458C1302.17 100.83 1302.81 101.358 1303.25 102.042C1303.69 102.726 1303.92 103.536 1303.92 104.472C1303.92 105.408 1303.69 106.218 1303.23 106.902C1302.79 107.574 1302.15 108.09 1301.32 108.45L1304.15 112.5H1301.02ZM1300.96 104.472C1300.96 103.764 1300.74 103.224 1300.28 102.852C1299.82 102.468 1299.16 102.276 1298.28 102.276H1295.91V106.668H1298.28C1299.16 106.668 1299.82 106.476 1300.28 106.092C1300.74 105.708 1300.96 105.168 1300.96 104.472ZM1315.98 110.16V112.5H1306.23V99.9H1315.75V102.24H1309.12V104.976H1314.97V107.244H1309.12V110.16H1315.98ZM1328.06 110.16V112.5H1318.3V99.9H1327.82V102.24H1321.2V104.976H1327.05V107.244H1321.2V110.16H1328.06ZM1335.48 99.9H1341.2C1342.57 99.9 1343.77 100.164 1344.82 100.692C1345.87 101.208 1346.69 101.94 1347.27 102.888C1347.85 103.836 1348.15 104.94 1348.15 106.2C1348.15 107.46 1347.85 108.564 1347.27 109.512C1346.69 110.46 1345.87 111.198 1344.82 111.726C1343.77 112.242 1342.57 112.5 1341.2 112.5H1335.48V99.9ZM1341.06 110.106C1342.32 110.106 1343.32 109.758 1344.06 109.062C1344.82 108.354 1345.2 107.4 1345.2 106.2C1345.2 105 1344.82 104.052 1344.06 103.356C1343.32 102.648 1342.32 102.294 1341.06 102.294H1338.39V110.106H1341.06ZM1358.47 109.8H1352.62L1351.5 112.5H1348.52L1354.13 99.9H1357.01L1362.65 112.5H1359.59L1358.47 109.8ZM1357.55 107.586L1355.55 102.762L1353.56 107.586H1357.55ZM1365.93 102.276H1361.9V99.9H1372.88V102.276H1368.85V112.5H1365.93V102.276ZM1382.11 109.8H1376.26L1375.15 112.5H1372.16L1377.77 99.9H1380.65L1386.29 112.5H1383.23L1382.11 109.8ZM1381.19 107.586L1379.2 102.762L1377.2 107.586H1381.19ZM1404.16 112.5L1404.14 104.94L1400.43 111.168H1399.12L1395.43 105.102V112.5H1392.69V99.9H1395.11L1399.82 107.73L1404.47 99.9H1406.86L1406.9 112.5H1404.16ZM1415.99 112.716C1414.68 112.716 1413.5 112.434 1412.44 111.87C1411.4 111.306 1410.57 110.532 1409.97 109.548C1409.39 108.552 1409.09 107.436 1409.09 106.2C1409.09 104.964 1409.39 103.854 1409.97 102.87C1410.57 101.874 1411.4 101.094 1412.44 100.53C1413.5 99.966 1414.68 99.684 1415.99 99.684C1417.29 99.684 1418.47 99.966 1419.51 100.53C1420.56 101.094 1421.38 101.874 1421.98 102.87C1422.58 103.854 1422.88 104.964 1422.88 106.2C1422.88 107.436 1422.58 108.552 1421.98 109.548C1421.38 110.532 1420.56 111.306 1419.51 111.87C1418.47 112.434 1417.29 112.716 1415.99 112.716ZM1415.99 110.232C1416.73 110.232 1417.4 110.064 1418 109.728C1418.6 109.38 1419.07 108.9 1419.41 108.288C1419.75 107.676 1419.93 106.98 1419.93 106.2C1419.93 105.42 1419.75 104.724 1419.41 104.112C1419.07 103.5 1418.6 103.026 1418 102.69C1417.4 102.342 1416.73 102.168 1415.99 102.168C1415.24 102.168 1414.57 102.342 1413.97 102.69C1413.37 103.026 1412.9 103.5 1412.55 104.112C1412.21 104.724 1412.04 105.42 1412.04 106.2C1412.04 106.98 1412.21 107.676 1412.55 108.288C1412.9 108.9 1413.37 109.38 1413.97 109.728C1414.57 110.064 1415.24 110.232 1415.99 110.232ZM1436.76 99.9L1431.31 112.5H1428.43L1422.99 99.9H1426.14L1429.98 108.9L1433.87 99.9H1436.76ZM1447.57 110.16V112.5H1437.82V99.9H1447.34V102.24H1440.71V104.976H1446.56V107.244H1440.71V110.16H1447.57ZM1461.36 112.5L1461.34 104.94L1457.63 111.168H1456.32L1452.63 105.102V112.5H1449.89V99.9H1452.3L1457.02 107.73L1461.66 99.9H1464.06L1464.09 112.5H1461.36ZM1476.84 110.16V112.5H1467.08V99.9H1476.61V102.24H1469.98V104.976H1475.83V107.244H1469.98V110.16H1476.84ZM1490.72 99.9V112.5H1488.32L1482.04 104.85V112.5H1479.16V99.9H1481.57L1487.84 107.55V99.9H1490.72ZM1496.31 102.276H1492.28V99.9H1503.26V102.276H1499.22V112.5H1496.31V102.276Z" fill="#202020"/>
</svg>
