<svg width="1368" height="522" viewBox="0 0 1368 522" fill="none" xmlns="http://www.w3.org/2000/svg">
<g clip-path="url(#clip0_156_865)">
<rect width="1368" height="522" fill="white"/>
<path d="M111.52 240.78V258.54H142.624V271.02H111.52V295.5H95.968V228.3H146.752V240.78H111.52ZM200.097 295.5L187.137 276.78H186.369H172.833V295.5H157.281V228.3H186.369C192.321 228.3 197.473 229.292 201.825 231.276C206.241 233.26 209.633 236.076 212.001 239.724C214.369 243.372 215.553 247.692 215.553 252.684C215.553 257.676 214.337 261.996 211.905 265.644C209.537 269.228 206.145 271.98 201.729 273.9L216.801 295.5H200.097ZM199.809 252.684C199.809 248.908 198.593 246.028 196.161 244.044C193.729 241.996 190.177 240.972 185.505 240.972H172.833V264.396H185.505C190.177 264.396 193.729 263.372 196.161 261.324C198.593 259.276 199.809 256.396 199.809 252.684ZM279.906 283.02V295.5H227.874V228.3H278.658V240.78H243.33V255.372H274.53V267.468H243.33V283.02H279.906ZM344.312 283.02V295.5H292.281V228.3H343.065V240.78H307.737V255.372H338.937V267.468H307.737V283.02H344.312ZM383.874 228.3H414.402C421.698 228.3 428.13 229.708 433.698 232.524C439.33 235.276 443.682 239.18 446.754 244.236C449.89 249.292 451.458 255.18 451.458 261.9C451.458 268.62 449.89 274.508 446.754 279.564C443.682 284.62 439.33 288.556 433.698 291.372C428.13 294.124 421.698 295.5 414.402 295.5H383.874V228.3ZM413.634 282.732C420.354 282.732 425.698 280.876 429.666 277.164C433.698 273.388 435.714 268.3 435.714 261.9C435.714 255.5 433.698 250.444 429.666 246.732C425.698 242.956 420.354 241.068 413.634 241.068H399.426V282.732H413.634ZM506.505 281.1H475.305L469.353 295.5H453.417L483.369 228.3H498.729L528.777 295.5H512.457L506.505 281.1ZM501.609 269.292L490.953 243.564L480.297 269.292H501.609ZM546.294 240.972H524.79V228.3H583.35V240.972H561.846V295.5H546.294V240.972ZM632.599 281.1H601.399L595.447 295.5H579.511L609.463 228.3H624.823L654.871 295.5H638.551L632.599 281.1ZM627.703 269.292L617.047 243.564L606.391 269.292H627.703ZM750.183 295.5L750.087 255.18L730.311 288.396H723.303L703.623 256.044V295.5H689.031V228.3H701.895L727.047 270.06L751.815 228.3H764.583L764.775 295.5H750.183ZM813.262 296.652C806.286 296.652 799.982 295.148 794.35 292.14C788.782 289.132 784.398 285.004 781.198 279.756C778.062 274.444 776.494 268.492 776.494 261.9C776.494 255.308 778.062 249.388 781.198 244.14C784.398 238.828 788.782 234.668 794.35 231.66C799.982 228.652 806.286 227.148 813.262 227.148C820.238 227.148 826.51 228.652 832.078 231.66C837.646 234.668 842.03 238.828 845.23 244.14C848.43 249.388 850.03 255.308 850.03 261.9C850.03 268.492 848.43 274.444 845.23 279.756C842.03 285.004 837.646 289.132 832.078 292.14C826.51 295.148 820.238 296.652 813.262 296.652ZM813.262 283.404C817.23 283.404 820.814 282.508 824.014 280.716C827.214 278.86 829.71 276.3 831.502 273.036C833.358 269.772 834.286 266.06 834.286 261.9C834.286 257.74 833.358 254.028 831.502 250.764C829.71 247.5 827.214 244.972 824.014 243.18C820.814 241.324 817.23 240.396 813.262 240.396C809.294 240.396 805.71 241.324 802.51 243.18C799.31 244.972 796.782 247.5 794.926 250.764C793.134 254.028 792.238 257.74 792.238 261.9C792.238 266.06 793.134 269.772 794.926 273.036C796.782 276.3 799.31 278.86 802.51 280.716C805.71 282.508 809.294 283.404 813.262 283.404ZM924.076 228.3L894.988 295.5H879.628L850.636 228.3H867.436L887.884 276.3L908.62 228.3H924.076ZM981.719 283.02V295.5H929.687V228.3H980.471V240.78H945.143V255.372H976.343V267.468H945.143V283.02H981.719ZM1055.25 295.5L1055.15 255.18L1035.37 288.396H1028.37L1008.69 256.044V295.5H994.093V228.3H1006.96L1032.11 270.06L1056.88 228.3H1069.65L1069.84 295.5H1055.25ZM1137.81 283.02V295.5H1085.78V228.3H1136.56V240.78H1101.24V255.372H1132.44V267.468H1101.24V283.02H1137.81ZM1211.82 228.3V295.5H1199.05L1165.55 254.7V295.5H1150.19V228.3H1163.05L1196.46 269.1V228.3H1211.82ZM1241.64 240.972H1220.13V228.3H1278.69V240.972H1257.19V295.5H1241.64V240.972Z" fill="#BBBBBB"/>
<path d="M-59.59 304.24V307.57H-53.758V309.91H-59.59V314.5H-62.506V301.9H-52.984V304.24H-59.59ZM-42.9819 314.5L-45.4119 310.99H-45.5559H-48.0939V314.5H-51.0099V301.9H-45.5559C-44.4399 301.9 -43.4739 302.086 -42.6579 302.458C-41.8299 302.83 -41.1939 303.358 -40.7499 304.042C-40.3059 304.726 -40.0839 305.536 -40.0839 306.472C-40.0839 307.408 -40.3119 308.218 -40.7679 308.902C-41.2119 309.574 -41.8479 310.09 -42.6759 310.45L-39.8499 314.5H-42.9819ZM-43.0359 306.472C-43.0359 305.764 -43.2639 305.224 -43.7199 304.852C-44.1759 304.468 -44.8419 304.276 -45.7179 304.276H-48.0939V308.668H-45.7179C-44.8419 308.668 -44.1759 308.476 -43.7199 308.092C-43.2639 307.708 -43.0359 307.168 -43.0359 306.472ZM-28.0176 312.16V314.5H-37.7736V301.9H-28.2516V304.24H-34.8756V306.976H-29.0256V309.244H-34.8756V312.16H-28.0176ZM-15.9414 312.16V314.5H-25.6974V301.9H-16.1754V304.24H-22.7994V306.976H-16.9494V309.244H-22.7994V312.16H-15.9414ZM-8.52358 301.9H-2.79958C-1.43158 301.9 -0.225577 302.164 0.818423 302.692C1.87442 303.208 2.69042 303.94 3.26642 304.888C3.85442 305.836 4.14842 306.94 4.14842 308.2C4.14842 309.46 3.85442 310.564 3.26642 311.512C2.69042 312.46 1.87442 313.198 0.818423 313.726C-0.225577 314.242 -1.43158 314.5 -2.79958 314.5H-8.52358V301.9ZM-2.94358 312.106C-1.68358 312.106 -0.681578 311.758 0.0624219 311.062C0.818422 310.354 1.19642 309.4 1.19642 308.2C1.19642 307 0.818422 306.052 0.0624219 305.356C-0.681578 304.648 -1.68358 304.294 -2.94358 304.294H-5.60758V312.106H-2.94358ZM14.4697 311.8H8.61973L7.50373 314.5H4.51573L10.1317 301.9H13.0117L18.6457 314.5H15.5857L14.4697 311.8ZM13.5517 309.586L11.5537 304.762L9.55573 309.586H13.5517ZM21.9302 304.276H17.8982V301.9H28.8782V304.276H24.8462V314.5H21.9302V304.276ZM38.1123 311.8H32.2623L31.1463 314.5H28.1583L33.7743 301.9H36.6543L42.2883 314.5H39.2283L38.1123 311.8ZM37.1943 309.586L35.1963 304.762L33.1983 309.586H37.1943ZM60.1592 314.5L60.1412 306.94L56.4332 313.168H55.1192L51.4292 307.102V314.5H48.6932V301.9H51.1052L55.8212 309.73L60.4652 301.9H62.8592L62.8952 314.5H60.1592ZM71.9866 314.716C70.6786 314.716 69.4966 314.434 68.4406 313.87C67.3966 313.306 66.5746 312.532 65.9746 311.548C65.3866 310.552 65.0926 309.436 65.0926 308.2C65.0926 306.964 65.3866 305.854 65.9746 304.87C66.5746 303.874 67.3966 303.094 68.4406 302.53C69.4966 301.966 70.6786 301.684 71.9866 301.684C73.2946 301.684 74.4706 301.966 75.5146 302.53C76.5586 303.094 77.3806 303.874 77.9806 304.87C78.5806 305.854 78.8806 306.964 78.8806 308.2C78.8806 309.436 78.5806 310.552 77.9806 311.548C77.3806 312.532 76.5586 313.306 75.5146 313.87C74.4706 314.434 73.2946 314.716 71.9866 314.716ZM71.9866 312.232C72.7306 312.232 73.4026 312.064 74.0026 311.728C74.6026 311.38 75.0706 310.9 75.4066 310.288C75.7546 309.676 75.9286 308.98 75.9286 308.2C75.9286 307.42 75.7546 306.724 75.4066 306.112C75.0706 305.5 74.6026 305.026 74.0026 304.69C73.4026 304.342 72.7306 304.168 71.9866 304.168C71.2426 304.168 70.5706 304.342 69.9706 304.69C69.3706 305.026 68.8966 305.5 68.5486 306.112C68.2126 306.724 68.0446 307.42 68.0446 308.2C68.0446 308.98 68.2126 309.676 68.5486 310.288C68.8966 310.9 69.3706 311.38 69.9706 311.728C70.5706 312.064 71.2426 312.232 71.9866 312.232ZM92.7643 301.9L87.3103 314.5H84.4303L78.9942 301.9H82.1443L85.9783 310.9L89.8663 301.9H92.7643ZM103.572 312.16V314.5H93.8163V301.9H103.338V304.24H96.7143V306.976H102.564V309.244H96.7143V312.16H103.572ZM117.358 314.5L117.34 306.94L113.632 313.168H112.318L108.628 307.102V314.5H105.892V301.9H108.304L113.02 309.73L117.664 301.9H120.058L120.094 314.5H117.358ZM132.84 312.16V314.5H123.084V301.9H132.606V304.24H125.982V306.976H131.832V309.244H125.982V312.16H132.84ZM146.716 301.9V314.5H144.322L138.04 306.85V314.5H135.16V301.9H137.572L143.836 309.55V301.9H146.716ZM152.307 304.276H148.275V301.9H159.255V304.276H155.223V314.5H152.307V304.276Z" fill="#BBBBBB"/>
<path d="M164.41 304.24V307.57H170.242V309.91H164.41V314.5H161.494V301.9H171.016V304.24H164.41ZM181.018 314.5L178.588 310.99H178.444H175.906V314.5H172.99V301.9H178.444C179.56 301.9 180.526 302.086 181.342 302.458C182.17 302.83 182.806 303.358 183.25 304.042C183.694 304.726 183.916 305.536 183.916 306.472C183.916 307.408 183.688 308.218 183.232 308.902C182.788 309.574 182.152 310.09 181.324 310.45L184.15 314.5H181.018ZM180.964 306.472C180.964 305.764 180.736 305.224 180.28 304.852C179.824 304.468 179.158 304.276 178.282 304.276H175.906V308.668H178.282C179.158 308.668 179.824 308.476 180.28 308.092C180.736 307.708 180.964 307.168 180.964 306.472ZM195.982 312.16V314.5H186.226V301.9H195.748V304.24H189.124V306.976H194.974V309.244H189.124V312.16H195.982ZM208.059 312.16V314.5H198.303V301.9H207.825V304.24H201.201V306.976H207.051V309.244H201.201V312.16H208.059ZM215.476 301.9H221.2C222.568 301.9 223.774 302.164 224.818 302.692C225.874 303.208 226.69 303.94 227.266 304.888C227.854 305.836 228.148 306.94 228.148 308.2C228.148 309.46 227.854 310.564 227.266 311.512C226.69 312.46 225.874 313.198 224.818 313.726C223.774 314.242 222.568 314.5 221.2 314.5H215.476V301.9ZM221.056 312.106C222.316 312.106 223.318 311.758 224.062 311.062C224.818 310.354 225.196 309.4 225.196 308.2C225.196 307 224.818 306.052 224.062 305.356C223.318 304.648 222.316 304.294 221.056 304.294H218.392V312.106H221.056ZM238.47 311.8H232.62L231.504 314.5H228.516L234.132 301.9H237.012L242.646 314.5H239.586L238.47 311.8ZM237.552 309.586L235.554 304.762L233.556 309.586H237.552ZM245.93 304.276H241.898V301.9H252.878V304.276H248.846V314.5H245.93V304.276ZM262.112 311.8H256.262L255.146 314.5H252.158L257.774 301.9H260.654L266.288 314.5H263.228L262.112 311.8ZM261.194 309.586L259.196 304.762L257.198 309.586H261.194ZM284.159 314.5L284.141 306.94L280.433 313.168H279.119L275.429 307.102V314.5H272.693V301.9H275.105L279.821 309.73L284.465 301.9H286.859L286.895 314.5H284.159ZM295.987 314.716C294.679 314.716 293.497 314.434 292.441 313.87C291.397 313.306 290.575 312.532 289.975 311.548C289.387 310.552 289.093 309.436 289.093 308.2C289.093 306.964 289.387 305.854 289.975 304.87C290.575 303.874 291.397 303.094 292.441 302.53C293.497 301.966 294.679 301.684 295.987 301.684C297.295 301.684 298.471 301.966 299.515 302.53C300.559 303.094 301.381 303.874 301.981 304.87C302.581 305.854 302.881 306.964 302.881 308.2C302.881 309.436 302.581 310.552 301.981 311.548C301.381 312.532 300.559 313.306 299.515 313.87C298.471 314.434 297.295 314.716 295.987 314.716ZM295.987 312.232C296.731 312.232 297.403 312.064 298.003 311.728C298.603 311.38 299.071 310.9 299.407 310.288C299.755 309.676 299.929 308.98 299.929 308.2C299.929 307.42 299.755 306.724 299.407 306.112C299.071 305.5 298.603 305.026 298.003 304.69C297.403 304.342 296.731 304.168 295.987 304.168C295.243 304.168 294.571 304.342 293.971 304.69C293.371 305.026 292.897 305.5 292.549 306.112C292.213 306.724 292.045 307.42 292.045 308.2C292.045 308.98 292.213 309.676 292.549 310.288C292.897 310.9 293.371 311.38 293.971 311.728C294.571 312.064 295.243 312.232 295.987 312.232ZM316.764 301.9L311.31 314.5H308.43L302.994 301.9H306.144L309.978 310.9L313.866 301.9H316.764ZM327.572 312.16V314.5H317.816V301.9H327.338V304.24H320.714V306.976H326.564V309.244H320.714V312.16H327.572ZM341.358 314.5L341.34 306.94L337.632 313.168H336.318L332.628 307.102V314.5H329.892V301.9H332.304L337.02 309.73L341.664 301.9H344.058L344.094 314.5H341.358ZM356.84 312.16V314.5H347.084V301.9H356.606V304.24H349.982V306.976H355.832V309.244H349.982V312.16H356.84ZM370.716 301.9V314.5H368.322L362.04 306.85V314.5H359.16V301.9H361.572L367.836 309.55V301.9H370.716ZM376.307 304.276H372.275V301.9H383.255V304.276H379.223V314.5H376.307V304.276Z" fill="#BBBBBB"/>
<path d="M-131.59 209.24V212.57H-125.758V214.91H-131.59V219.5H-134.506V206.9H-124.984V209.24H-131.59ZM-114.982 219.5L-117.412 215.99H-117.556H-120.094V219.5H-123.01V206.9H-117.556C-116.44 206.9 -115.474 207.086 -114.658 207.458C-113.83 207.83 -113.194 208.358 -112.75 209.042C-112.306 209.726 -112.084 210.536 -112.084 211.472C-112.084 212.408 -112.312 213.218 -112.768 213.902C-113.212 214.574 -113.848 215.09 -114.676 215.45L-111.85 219.5H-114.982ZM-115.036 211.472C-115.036 210.764 -115.264 210.224 -115.72 209.852C-116.176 209.468 -116.842 209.276 -117.718 209.276H-120.094V213.668H-117.718C-116.842 213.668 -116.176 213.476 -115.72 213.092C-115.264 212.708 -115.036 212.168 -115.036 211.472ZM-100.018 217.16V219.5H-109.774V206.9H-100.252V209.24H-106.876V211.976H-101.026V214.244H-106.876V217.16H-100.018ZM-87.9414 217.16V219.5H-97.6974V206.9H-88.1754V209.24H-94.7994V211.976H-88.9494V214.244H-94.7994V217.16H-87.9414ZM-80.5236 206.9H-74.7996C-73.4316 206.9 -72.2256 207.164 -71.1816 207.692C-70.1256 208.208 -69.3096 208.94 -68.7336 209.888C-68.1456 210.836 -67.8516 211.94 -67.8516 213.2C-67.8516 214.46 -68.1456 215.564 -68.7336 216.512C-69.3096 217.46 -70.1256 218.198 -71.1816 218.726C-72.2256 219.242 -73.4316 219.5 -74.7996 219.5H-80.5236V206.9ZM-74.9436 217.106C-73.6836 217.106 -72.6816 216.758 -71.9376 216.062C-71.1816 215.354 -70.8036 214.4 -70.8036 213.2C-70.8036 212 -71.1816 211.052 -71.9376 210.356C-72.6816 209.648 -73.6836 209.294 -74.9436 209.294H-77.6076V217.106H-74.9436ZM-57.5303 216.8H-63.3803L-64.4963 219.5H-67.4843L-61.8683 206.9H-58.9883L-53.3543 219.5H-56.4143L-57.5303 216.8ZM-58.4483 214.586L-60.4463 209.762L-62.4443 214.586H-58.4483ZM-50.0698 209.276H-54.1018V206.9H-43.1218V209.276H-47.1538V219.5H-50.0698V209.276ZM-33.8877 216.8H-39.7377L-40.8537 219.5H-43.8417L-38.2257 206.9H-35.3457L-29.7117 219.5H-32.7717L-33.8877 216.8ZM-34.8057 214.586L-36.8037 209.762L-38.8017 214.586H-34.8057ZM-11.8408 219.5L-11.8588 211.94L-15.5668 218.168H-16.8808L-20.5708 212.102V219.5H-23.3068V206.9H-20.8948L-16.1788 214.73L-11.5348 206.9H-9.14078L-9.10478 219.5H-11.8408ZM-0.0133746 219.716C-1.32137 219.716 -2.50337 219.434 -3.55937 218.87C-4.60337 218.306 -5.42537 217.532 -6.02537 216.548C-6.61337 215.552 -6.90737 214.436 -6.90737 213.2C-6.90737 211.964 -6.61337 210.854 -6.02537 209.87C-5.42537 208.874 -4.60337 208.094 -3.55937 207.53C-2.50337 206.966 -1.32137 206.684 -0.0133746 206.684C1.29463 206.684 2.47063 206.966 3.51463 207.53C4.55863 208.094 5.38063 208.874 5.98063 209.87C6.58063 210.854 6.88063 211.964 6.88063 213.2C6.88063 214.436 6.58063 215.552 5.98063 216.548C5.38063 217.532 4.55863 218.306 3.51463 218.87C2.47063 219.434 1.29463 219.716 -0.0133746 219.716ZM-0.0133746 217.232C0.730625 217.232 1.40263 217.064 2.00263 216.728C2.60263 216.38 3.07063 215.9 3.40663 215.288C3.75463 214.676 3.92863 213.98 3.92863 213.2C3.92863 212.42 3.75463 211.724 3.40663 211.112C3.07063 210.5 2.60263 210.026 2.00263 209.69C1.40263 209.342 0.730625 209.168 -0.0133746 209.168C-0.757375 209.168 -1.42937 209.342 -2.02937 209.69C-2.62937 210.026 -3.10337 210.5 -3.45137 211.112C-3.78737 211.724 -3.95537 212.42 -3.95537 213.2C-3.95537 213.98 -3.78737 214.676 -3.45137 215.288C-3.10337 215.9 -2.62937 216.38 -2.02937 216.728C-1.42937 217.064 -0.757375 217.232 -0.0133746 217.232ZM20.7643 206.9L15.3103 219.5H12.4303L6.99425 206.9H10.1443L13.9783 215.9L17.8663 206.9H20.7643ZM31.5723 217.16V219.5H21.8163V206.9H31.3383V209.24H24.7143V211.976H30.5643V214.244H24.7143V217.16H31.5723ZM45.3584 219.5L45.3404 211.94L41.6324 218.168H40.3184L36.6284 212.102V219.5H33.8924V206.9H36.3044L41.0204 214.73L45.6644 206.9H48.0584L48.0944 219.5H45.3584ZM60.8398 217.16V219.5H51.0838V206.9H60.6058V209.24H53.9818V211.976H59.8318V214.244H53.9818V217.16H60.8398ZM74.716 206.9V219.5H72.322L66.04 211.85V219.5H63.16V206.9H65.572L71.836 214.55V206.9H74.716ZM80.3071 209.276H76.2751V206.9H87.2551V209.276H83.2231V219.5H80.3071V209.276Z" fill="#BBBBBB"/>
<path d="M92.41 209.24V212.57H98.242V214.91H92.41V219.5H89.494V206.9H99.016V209.24H92.41ZM109.018 219.5L106.588 215.99H106.444H103.906V219.5H100.99V206.9H106.444C107.56 206.9 108.526 207.086 109.342 207.458C110.17 207.83 110.806 208.358 111.25 209.042C111.694 209.726 111.916 210.536 111.916 211.472C111.916 212.408 111.688 213.218 111.232 213.902C110.788 214.574 110.152 215.09 109.324 215.45L112.15 219.5H109.018ZM108.964 211.472C108.964 210.764 108.736 210.224 108.28 209.852C107.824 209.468 107.158 209.276 106.282 209.276H103.906V213.668H106.282C107.158 213.668 107.824 213.476 108.28 213.092C108.736 212.708 108.964 212.168 108.964 211.472ZM123.982 217.16V219.5H114.226V206.9H123.748V209.24H117.124V211.976H122.974V214.244H117.124V217.16H123.982ZM136.059 217.16V219.5H126.303V206.9H135.825V209.24H129.201V211.976H135.051V214.244H129.201V217.16H136.059ZM143.476 206.9H149.2C150.568 206.9 151.774 207.164 152.818 207.692C153.874 208.208 154.69 208.94 155.266 209.888C155.854 210.836 156.148 211.94 156.148 213.2C156.148 214.46 155.854 215.564 155.266 216.512C154.69 217.46 153.874 218.198 152.818 218.726C151.774 219.242 150.568 219.5 149.2 219.5H143.476V206.9ZM149.056 217.106C150.316 217.106 151.318 216.758 152.062 216.062C152.818 215.354 153.196 214.4 153.196 213.2C153.196 212 152.818 211.052 152.062 210.356C151.318 209.648 150.316 209.294 149.056 209.294H146.392V217.106H149.056ZM166.47 216.8H160.62L159.504 219.5H156.516L162.132 206.9H165.012L170.646 219.5H167.586L166.47 216.8ZM165.552 214.586L163.554 209.762L161.556 214.586H165.552ZM173.93 209.276H169.898V206.9H180.878V209.276H176.846V219.5H173.93V209.276ZM190.112 216.8H184.262L183.146 219.5H180.158L185.774 206.9H188.654L194.288 219.5H191.228L190.112 216.8ZM189.194 214.586L187.196 209.762L185.198 214.586H189.194ZM212.159 219.5L212.141 211.94L208.433 218.168H207.119L203.429 212.102V219.5H200.693V206.9H203.105L207.821 214.73L212.465 206.9H214.859L214.895 219.5H212.159ZM223.987 219.716C222.679 219.716 221.497 219.434 220.441 218.87C219.397 218.306 218.575 217.532 217.975 216.548C217.387 215.552 217.093 214.436 217.093 213.2C217.093 211.964 217.387 210.854 217.975 209.87C218.575 208.874 219.397 208.094 220.441 207.53C221.497 206.966 222.679 206.684 223.987 206.684C225.295 206.684 226.471 206.966 227.515 207.53C228.559 208.094 229.381 208.874 229.981 209.87C230.581 210.854 230.881 211.964 230.881 213.2C230.881 214.436 230.581 215.552 229.981 216.548C229.381 217.532 228.559 218.306 227.515 218.87C226.471 219.434 225.295 219.716 223.987 219.716ZM223.987 217.232C224.731 217.232 225.403 217.064 226.003 216.728C226.603 216.38 227.071 215.9 227.407 215.288C227.755 214.676 227.929 213.98 227.929 213.2C227.929 212.42 227.755 211.724 227.407 211.112C227.071 210.5 226.603 210.026 226.003 209.69C225.403 209.342 224.731 209.168 223.987 209.168C223.243 209.168 222.571 209.342 221.971 209.69C221.371 210.026 220.897 210.5 220.549 211.112C220.213 211.724 220.045 212.42 220.045 213.2C220.045 213.98 220.213 214.676 220.549 215.288C220.897 215.9 221.371 216.38 221.971 216.728C222.571 217.064 223.243 217.232 223.987 217.232ZM244.764 206.9L239.31 219.5H236.43L230.994 206.9H234.144L237.978 215.9L241.866 206.9H244.764ZM255.572 217.16V219.5H245.816V206.9H255.338V209.24H248.714V211.976H254.564V214.244H248.714V217.16H255.572ZM269.358 219.5L269.34 211.94L265.632 218.168H264.318L260.628 212.102V219.5H257.892V206.9H260.304L265.02 214.73L269.664 206.9H272.058L272.094 219.5H269.358ZM284.84 217.16V219.5H275.084V206.9H284.606V209.24H277.982V211.976H283.832V214.244H277.982V217.16H284.84ZM298.716 206.9V219.5H296.322L290.04 211.85V219.5H287.16V206.9H289.572L295.836 214.55V206.9H298.716ZM304.307 209.276H300.275V206.9H311.255V209.276H307.223V219.5H304.307V209.276Z" fill="#BBBBBB"/>
<path d="M316.41 209.24V212.57H322.242V214.91H316.41V219.5H313.494V206.9H323.016V209.24H316.41ZM333.018 219.5L330.588 215.99H330.444H327.906V219.5H324.99V206.9H330.444C331.56 206.9 332.526 207.086 333.342 207.458C334.17 207.83 334.806 208.358 335.25 209.042C335.694 209.726 335.916 210.536 335.916 211.472C335.916 212.408 335.688 213.218 335.232 213.902C334.788 214.574 334.152 215.09 333.324 215.45L336.15 219.5H333.018ZM332.964 211.472C332.964 210.764 332.736 210.224 332.28 209.852C331.824 209.468 331.158 209.276 330.282 209.276H327.906V213.668H330.282C331.158 213.668 331.824 213.476 332.28 213.092C332.736 212.708 332.964 212.168 332.964 211.472ZM347.982 217.16V219.5H338.226V206.9H347.748V209.24H341.124V211.976H346.974V214.244H341.124V217.16H347.982ZM360.059 217.16V219.5H350.303V206.9H359.825V209.24H353.201V211.976H359.051V214.244H353.201V217.16H360.059ZM367.476 206.9H373.2C374.568 206.9 375.774 207.164 376.818 207.692C377.874 208.208 378.69 208.94 379.266 209.888C379.854 210.836 380.148 211.94 380.148 213.2C380.148 214.46 379.854 215.564 379.266 216.512C378.69 217.46 377.874 218.198 376.818 218.726C375.774 219.242 374.568 219.5 373.2 219.5H367.476V206.9ZM373.056 217.106C374.316 217.106 375.318 216.758 376.062 216.062C376.818 215.354 377.196 214.4 377.196 213.2C377.196 212 376.818 211.052 376.062 210.356C375.318 209.648 374.316 209.294 373.056 209.294H370.392V217.106H373.056ZM390.47 216.8H384.62L383.504 219.5H380.516L386.132 206.9H389.012L394.646 219.5H391.586L390.47 216.8ZM389.552 214.586L387.554 209.762L385.556 214.586H389.552ZM397.93 209.276H393.898V206.9H404.878V209.276H400.846V219.5H397.93V209.276ZM414.112 216.8H408.262L407.146 219.5H404.158L409.774 206.9H412.654L418.288 219.5H415.228L414.112 216.8ZM413.194 214.586L411.196 209.762L409.198 214.586H413.194ZM436.159 219.5L436.141 211.94L432.433 218.168H431.119L427.429 212.102V219.5H424.693V206.9H427.105L431.821 214.73L436.465 206.9H438.859L438.895 219.5H436.159ZM447.987 219.716C446.679 219.716 445.497 219.434 444.441 218.87C443.397 218.306 442.575 217.532 441.975 216.548C441.387 215.552 441.093 214.436 441.093 213.2C441.093 211.964 441.387 210.854 441.975 209.87C442.575 208.874 443.397 208.094 444.441 207.53C445.497 206.966 446.679 206.684 447.987 206.684C449.295 206.684 450.471 206.966 451.515 207.53C452.559 208.094 453.381 208.874 453.981 209.87C454.581 210.854 454.881 211.964 454.881 213.2C454.881 214.436 454.581 215.552 453.981 216.548C453.381 217.532 452.559 218.306 451.515 218.87C450.471 219.434 449.295 219.716 447.987 219.716ZM447.987 217.232C448.731 217.232 449.403 217.064 450.003 216.728C450.603 216.38 451.071 215.9 451.407 215.288C451.755 214.676 451.929 213.98 451.929 213.2C451.929 212.42 451.755 211.724 451.407 211.112C451.071 210.5 450.603 210.026 450.003 209.69C449.403 209.342 448.731 209.168 447.987 209.168C447.243 209.168 446.571 209.342 445.971 209.69C445.371 210.026 444.897 210.5 444.549 211.112C444.213 211.724 444.045 212.42 444.045 213.2C444.045 213.98 444.213 214.676 444.549 215.288C444.897 215.9 445.371 216.38 445.971 216.728C446.571 217.064 447.243 217.232 447.987 217.232ZM468.764 206.9L463.31 219.5H460.43L454.994 206.9H458.144L461.978 215.9L465.866 206.9H468.764ZM479.572 217.16V219.5H469.816V206.9H479.338V209.24H472.714V211.976H478.564V214.244H472.714V217.16H479.572ZM493.358 219.5L493.34 211.94L489.632 218.168H488.318L484.628 212.102V219.5H481.892V206.9H484.304L489.02 214.73L493.664 206.9H496.058L496.094 219.5H493.358ZM508.84 217.16V219.5H499.084V206.9H508.606V209.24H501.982V211.976H507.832V214.244H501.982V217.16H508.84ZM522.716 206.9V219.5H520.322L514.04 211.85V219.5H511.16V206.9H513.572L519.836 214.55V206.9H522.716ZM528.307 209.276H524.275V206.9H535.255V209.276H531.223V219.5H528.307V209.276Z" fill="#BBBBBB"/>
<path d="M540.41 209.24V212.57H546.242V214.91H540.41V219.5H537.494V206.9H547.016V209.24H540.41ZM557.018 219.5L554.588 215.99H554.444H551.906V219.5H548.99V206.9H554.444C555.56 206.9 556.526 207.086 557.342 207.458C558.17 207.83 558.806 208.358 559.25 209.042C559.694 209.726 559.916 210.536 559.916 211.472C559.916 212.408 559.688 213.218 559.232 213.902C558.788 214.574 558.152 215.09 557.324 215.45L560.15 219.5H557.018ZM556.964 211.472C556.964 210.764 556.736 210.224 556.28 209.852C555.824 209.468 555.158 209.276 554.282 209.276H551.906V213.668H554.282C555.158 213.668 555.824 213.476 556.28 213.092C556.736 212.708 556.964 212.168 556.964 211.472ZM571.982 217.16V219.5H562.226V206.9H571.748V209.24H565.124V211.976H570.974V214.244H565.124V217.16H571.982ZM584.059 217.16V219.5H574.303V206.9H583.825V209.24H577.201V211.976H583.051V214.244H577.201V217.16H584.059ZM591.476 206.9H597.2C598.568 206.9 599.774 207.164 600.818 207.692C601.874 208.208 602.69 208.94 603.266 209.888C603.854 210.836 604.148 211.94 604.148 213.2C604.148 214.46 603.854 215.564 603.266 216.512C602.69 217.46 601.874 218.198 600.818 218.726C599.774 219.242 598.568 219.5 597.2 219.5H591.476V206.9ZM597.056 217.106C598.316 217.106 599.318 216.758 600.062 216.062C600.818 215.354 601.196 214.4 601.196 213.2C601.196 212 600.818 211.052 600.062 210.356C599.318 209.648 598.316 209.294 597.056 209.294H594.392V217.106H597.056ZM614.47 216.8H608.62L607.504 219.5H604.516L610.132 206.9H613.012L618.646 219.5H615.586L614.47 216.8ZM613.552 214.586L611.554 209.762L609.556 214.586H613.552ZM621.93 209.276H617.898V206.9H628.878V209.276H624.846V219.5H621.93V209.276ZM638.112 216.8H632.262L631.146 219.5H628.158L633.774 206.9H636.654L642.288 219.5H639.228L638.112 216.8ZM637.194 214.586L635.196 209.762L633.198 214.586H637.194ZM660.159 219.5L660.141 211.94L656.433 218.168H655.119L651.429 212.102V219.5H648.693V206.9H651.105L655.821 214.73L660.465 206.9H662.859L662.895 219.5H660.159ZM671.987 219.716C670.679 219.716 669.497 219.434 668.441 218.87C667.397 218.306 666.575 217.532 665.975 216.548C665.387 215.552 665.093 214.436 665.093 213.2C665.093 211.964 665.387 210.854 665.975 209.87C666.575 208.874 667.397 208.094 668.441 207.53C669.497 206.966 670.679 206.684 671.987 206.684C673.295 206.684 674.471 206.966 675.515 207.53C676.559 208.094 677.381 208.874 677.981 209.87C678.581 210.854 678.881 211.964 678.881 213.2C678.881 214.436 678.581 215.552 677.981 216.548C677.381 217.532 676.559 218.306 675.515 218.87C674.471 219.434 673.295 219.716 671.987 219.716ZM671.987 217.232C672.731 217.232 673.403 217.064 674.003 216.728C674.603 216.38 675.071 215.9 675.407 215.288C675.755 214.676 675.929 213.98 675.929 213.2C675.929 212.42 675.755 211.724 675.407 211.112C675.071 210.5 674.603 210.026 674.003 209.69C673.403 209.342 672.731 209.168 671.987 209.168C671.243 209.168 670.571 209.342 669.971 209.69C669.371 210.026 668.897 210.5 668.549 211.112C668.213 211.724 668.045 212.42 668.045 213.2C668.045 213.98 668.213 214.676 668.549 215.288C668.897 215.9 669.371 216.38 669.971 216.728C670.571 217.064 671.243 217.232 671.987 217.232ZM692.764 206.9L687.31 219.5H684.43L678.994 206.9H682.144L685.978 215.9L689.866 206.9H692.764ZM703.572 217.16V219.5H693.816V206.9H703.338V209.24H696.714V211.976H702.564V214.244H696.714V217.16H703.572ZM717.358 219.5L717.34 211.94L713.632 218.168H712.318L708.628 212.102V219.5H705.892V206.9H708.304L713.02 214.73L717.664 206.9H720.058L720.094 219.5H717.358ZM732.84 217.16V219.5H723.084V206.9H732.606V209.24H725.982V211.976H731.832V214.244H725.982V217.16H732.84ZM746.716 206.9V219.5H744.322L738.04 211.85V219.5H735.16V206.9H737.572L743.836 214.55V206.9H746.716ZM752.307 209.276H748.275V206.9H759.255V209.276H755.223V219.5H752.307V209.276Z" fill="#BBBBBB"/>
<path d="M764.41 209.24V212.57H770.242V214.91H764.41V219.5H761.494V206.9H771.016V209.24H764.41ZM781.018 219.5L778.588 215.99H778.444H775.906V219.5H772.99V206.9H778.444C779.56 206.9 780.526 207.086 781.342 207.458C782.17 207.83 782.806 208.358 783.25 209.042C783.694 209.726 783.916 210.536 783.916 211.472C783.916 212.408 783.688 213.218 783.232 213.902C782.788 214.574 782.152 215.09 781.324 215.45L784.15 219.5H781.018ZM780.964 211.472C780.964 210.764 780.736 210.224 780.28 209.852C779.824 209.468 779.158 209.276 778.282 209.276H775.906V213.668H778.282C779.158 213.668 779.824 213.476 780.28 213.092C780.736 212.708 780.964 212.168 780.964 211.472ZM795.982 217.16V219.5H786.226V206.9H795.748V209.24H789.124V211.976H794.974V214.244H789.124V217.16H795.982ZM808.059 217.16V219.5H798.303V206.9H807.825V209.24H801.201V211.976H807.051V214.244H801.201V217.16H808.059ZM815.476 206.9H821.2C822.568 206.9 823.774 207.164 824.818 207.692C825.874 208.208 826.69 208.94 827.266 209.888C827.854 210.836 828.148 211.94 828.148 213.2C828.148 214.46 827.854 215.564 827.266 216.512C826.69 217.46 825.874 218.198 824.818 218.726C823.774 219.242 822.568 219.5 821.2 219.5H815.476V206.9ZM821.056 217.106C822.316 217.106 823.318 216.758 824.062 216.062C824.818 215.354 825.196 214.4 825.196 213.2C825.196 212 824.818 211.052 824.062 210.356C823.318 209.648 822.316 209.294 821.056 209.294H818.392V217.106H821.056ZM838.47 216.8H832.62L831.504 219.5H828.516L834.132 206.9H837.012L842.646 219.5H839.586L838.47 216.8ZM837.552 214.586L835.554 209.762L833.556 214.586H837.552ZM845.93 209.276H841.898V206.9H852.878V209.276H848.846V219.5H845.93V209.276ZM862.112 216.8H856.262L855.146 219.5H852.158L857.774 206.9H860.654L866.288 219.5H863.228L862.112 216.8ZM861.194 214.586L859.196 209.762L857.198 214.586H861.194ZM884.159 219.5L884.141 211.94L880.433 218.168H879.119L875.429 212.102V219.5H872.693V206.9H875.105L879.821 214.73L884.465 206.9H886.859L886.895 219.5H884.159ZM895.987 219.716C894.679 219.716 893.497 219.434 892.441 218.87C891.397 218.306 890.575 217.532 889.975 216.548C889.387 215.552 889.093 214.436 889.093 213.2C889.093 211.964 889.387 210.854 889.975 209.87C890.575 208.874 891.397 208.094 892.441 207.53C893.497 206.966 894.679 206.684 895.987 206.684C897.295 206.684 898.471 206.966 899.515 207.53C900.559 208.094 901.381 208.874 901.981 209.87C902.581 210.854 902.881 211.964 902.881 213.2C902.881 214.436 902.581 215.552 901.981 216.548C901.381 217.532 900.559 218.306 899.515 218.87C898.471 219.434 897.295 219.716 895.987 219.716ZM895.987 217.232C896.731 217.232 897.403 217.064 898.003 216.728C898.603 216.38 899.071 215.9 899.407 215.288C899.755 214.676 899.929 213.98 899.929 213.2C899.929 212.42 899.755 211.724 899.407 211.112C899.071 210.5 898.603 210.026 898.003 209.69C897.403 209.342 896.731 209.168 895.987 209.168C895.243 209.168 894.571 209.342 893.971 209.69C893.371 210.026 892.897 210.5 892.549 211.112C892.213 211.724 892.045 212.42 892.045 213.2C892.045 213.98 892.213 214.676 892.549 215.288C892.897 215.9 893.371 216.38 893.971 216.728C894.571 217.064 895.243 217.232 895.987 217.232ZM916.764 206.9L911.31 219.5H908.43L902.994 206.9H906.144L909.978 215.9L913.866 206.9H916.764ZM927.572 217.16V219.5H917.816V206.9H927.338V209.24H920.714V211.976H926.564V214.244H920.714V217.16H927.572ZM941.358 219.5L941.34 211.94L937.632 218.168H936.318L932.628 212.102V219.5H929.892V206.9H932.304L937.02 214.73L941.664 206.9H944.058L944.094 219.5H941.358ZM956.84 217.16V219.5H947.084V206.9H956.606V209.24H949.982V211.976H955.832V214.244H949.982V217.16H956.84ZM970.716 206.9V219.5H968.322L962.04 211.85V219.5H959.16V206.9H961.572L967.836 214.55V206.9H970.716ZM976.307 209.276H972.275V206.9H983.255V209.276H979.223V219.5H976.307V209.276Z" fill="#BBBBBB"/>
<path d="M988.41 209.24V212.57H994.242V214.91H988.41V219.5H985.494V206.9H995.016V209.24H988.41ZM1005.02 219.5L1002.59 215.99H1002.44H999.906V219.5H996.99V206.9H1002.44C1003.56 206.9 1004.53 207.086 1005.34 207.458C1006.17 207.83 1006.81 208.358 1007.25 209.042C1007.69 209.726 1007.92 210.536 1007.92 211.472C1007.92 212.408 1007.69 213.218 1007.23 213.902C1006.79 214.574 1006.15 215.09 1005.32 215.45L1008.15 219.5H1005.02ZM1004.96 211.472C1004.96 210.764 1004.74 210.224 1004.28 209.852C1003.82 209.468 1003.16 209.276 1002.28 209.276H999.906V213.668H1002.28C1003.16 213.668 1003.82 213.476 1004.28 213.092C1004.74 212.708 1004.96 212.168 1004.96 211.472ZM1019.98 217.16V219.5H1010.23V206.9H1019.75V209.24H1013.12V211.976H1018.97V214.244H1013.12V217.16H1019.98ZM1032.06 217.16V219.5H1022.3V206.9H1031.82V209.24H1025.2V211.976H1031.05V214.244H1025.2V217.16H1032.06ZM1039.48 206.9H1045.2C1046.57 206.9 1047.77 207.164 1048.82 207.692C1049.87 208.208 1050.69 208.94 1051.27 209.888C1051.85 210.836 1052.15 211.94 1052.15 213.2C1052.15 214.46 1051.85 215.564 1051.27 216.512C1050.69 217.46 1049.87 218.198 1048.82 218.726C1047.77 219.242 1046.57 219.5 1045.2 219.5H1039.48V206.9ZM1045.06 217.106C1046.32 217.106 1047.32 216.758 1048.06 216.062C1048.82 215.354 1049.2 214.4 1049.2 213.2C1049.2 212 1048.82 211.052 1048.06 210.356C1047.32 209.648 1046.32 209.294 1045.06 209.294H1042.39V217.106H1045.06ZM1062.47 216.8H1056.62L1055.5 219.5H1052.52L1058.13 206.9H1061.01L1066.65 219.5H1063.59L1062.47 216.8ZM1061.55 214.586L1059.55 209.762L1057.56 214.586H1061.55ZM1069.93 209.276H1065.9V206.9H1076.88V209.276H1072.85V219.5H1069.93V209.276ZM1086.11 216.8H1080.26L1079.15 219.5H1076.16L1081.77 206.9H1084.65L1090.29 219.5H1087.23L1086.11 216.8ZM1085.19 214.586L1083.2 209.762L1081.2 214.586H1085.19ZM1108.16 219.5L1108.14 211.94L1104.43 218.168H1103.12L1099.43 212.102V219.5H1096.69V206.9H1099.11L1103.82 214.73L1108.47 206.9H1110.86L1110.9 219.5H1108.16ZM1119.99 219.716C1118.68 219.716 1117.5 219.434 1116.44 218.87C1115.4 218.306 1114.57 217.532 1113.97 216.548C1113.39 215.552 1113.09 214.436 1113.09 213.2C1113.09 211.964 1113.39 210.854 1113.97 209.87C1114.57 208.874 1115.4 208.094 1116.44 207.53C1117.5 206.966 1118.68 206.684 1119.99 206.684C1121.29 206.684 1122.47 206.966 1123.51 207.53C1124.56 208.094 1125.38 208.874 1125.98 209.87C1126.58 210.854 1126.88 211.964 1126.88 213.2C1126.88 214.436 1126.58 215.552 1125.98 216.548C1125.38 217.532 1124.56 218.306 1123.51 218.87C1122.47 219.434 1121.29 219.716 1119.99 219.716ZM1119.99 217.232C1120.73 217.232 1121.4 217.064 1122 216.728C1122.6 216.38 1123.07 215.9 1123.41 215.288C1123.75 214.676 1123.93 213.98 1123.93 213.2C1123.93 212.42 1123.75 211.724 1123.41 211.112C1123.07 210.5 1122.6 210.026 1122 209.69C1121.4 209.342 1120.73 209.168 1119.99 209.168C1119.24 209.168 1118.57 209.342 1117.97 209.69C1117.37 210.026 1116.9 210.5 1116.55 211.112C1116.21 211.724 1116.04 212.42 1116.04 213.2C1116.04 213.98 1116.21 214.676 1116.55 215.288C1116.9 215.9 1117.37 216.38 1117.97 216.728C1118.57 217.064 1119.24 217.232 1119.99 217.232ZM1140.76 206.9L1135.31 219.5H1132.43L1126.99 206.9H1130.14L1133.98 215.9L1137.87 206.9H1140.76ZM1151.57 217.16V219.5H1141.82V206.9H1151.34V209.24H1144.71V211.976H1150.56V214.244H1144.71V217.16H1151.57ZM1165.36 219.5L1165.34 211.94L1161.63 218.168H1160.32L1156.63 212.102V219.5H1153.89V206.9H1156.3L1161.02 214.73L1165.66 206.9H1168.06L1168.09 219.5H1165.36ZM1180.84 217.16V219.5H1171.08V206.9H1180.61V209.24H1173.98V211.976H1179.83V214.244H1173.98V217.16H1180.84ZM1194.72 206.9V219.5H1192.32L1186.04 211.85V219.5H1183.16V206.9H1185.57L1191.84 214.55V206.9H1194.72ZM1200.31 209.276H1196.28V206.9H1207.26V209.276H1203.22V219.5H1200.31V209.276Z" fill="#BBBBBB"/>
<path d="M1212.41 209.24V212.57H1218.24V214.91H1212.41V219.5H1209.49V206.9H1219.02V209.24H1212.41ZM1229.02 219.5L1226.59 215.99H1226.44H1223.91V219.5H1220.99V206.9H1226.44C1227.56 206.9 1228.53 207.086 1229.34 207.458C1230.17 207.83 1230.81 208.358 1231.25 209.042C1231.69 209.726 1231.92 210.536 1231.92 211.472C1231.92 212.408 1231.69 213.218 1231.23 213.902C1230.79 214.574 1230.15 215.09 1229.32 215.45L1232.15 219.5H1229.02ZM1228.96 211.472C1228.96 210.764 1228.74 210.224 1228.28 209.852C1227.82 209.468 1227.16 209.276 1226.28 209.276H1223.91V213.668H1226.28C1227.16 213.668 1227.82 213.476 1228.28 213.092C1228.74 212.708 1228.96 212.168 1228.96 211.472ZM1243.98 217.16V219.5H1234.23V206.9H1243.75V209.24H1237.12V211.976H1242.97V214.244H1237.12V217.16H1243.98ZM1256.06 217.16V219.5H1246.3V206.9H1255.82V209.24H1249.2V211.976H1255.05V214.244H1249.2V217.16H1256.06ZM1263.48 206.9H1269.2C1270.57 206.9 1271.77 207.164 1272.82 207.692C1273.87 208.208 1274.69 208.94 1275.27 209.888C1275.85 210.836 1276.15 211.94 1276.15 213.2C1276.15 214.46 1275.85 215.564 1275.27 216.512C1274.69 217.46 1273.87 218.198 1272.82 218.726C1271.77 219.242 1270.57 219.5 1269.2 219.5H1263.48V206.9ZM1269.06 217.106C1270.32 217.106 1271.32 216.758 1272.06 216.062C1272.82 215.354 1273.2 214.4 1273.2 213.2C1273.2 212 1272.82 211.052 1272.06 210.356C1271.32 209.648 1270.32 209.294 1269.06 209.294H1266.39V217.106H1269.06ZM1286.47 216.8H1280.62L1279.5 219.5H1276.52L1282.13 206.9H1285.01L1290.65 219.5H1287.59L1286.47 216.8ZM1285.55 214.586L1283.55 209.762L1281.56 214.586H1285.55ZM1293.93 209.276H1289.9V206.9H1300.88V209.276H1296.85V219.5H1293.93V209.276ZM1310.11 216.8H1304.26L1303.15 219.5H1300.16L1305.77 206.9H1308.65L1314.29 219.5H1311.23L1310.11 216.8ZM1309.19 214.586L1307.2 209.762L1305.2 214.586H1309.19ZM1332.16 219.5L1332.14 211.94L1328.43 218.168H1327.12L1323.43 212.102V219.5H1320.69V206.9H1323.11L1327.82 214.73L1332.47 206.9H1334.86L1334.9 219.5H1332.16ZM1343.99 219.716C1342.68 219.716 1341.5 219.434 1340.44 218.87C1339.4 218.306 1338.57 217.532 1337.97 216.548C1337.39 215.552 1337.09 214.436 1337.09 213.2C1337.09 211.964 1337.39 210.854 1337.97 209.87C1338.57 208.874 1339.4 208.094 1340.44 207.53C1341.5 206.966 1342.68 206.684 1343.99 206.684C1345.29 206.684 1346.47 206.966 1347.51 207.53C1348.56 208.094 1349.38 208.874 1349.98 209.87C1350.58 210.854 1350.88 211.964 1350.88 213.2C1350.88 214.436 1350.58 215.552 1349.98 216.548C1349.38 217.532 1348.56 218.306 1347.51 218.87C1346.47 219.434 1345.29 219.716 1343.99 219.716ZM1343.99 217.232C1344.73 217.232 1345.4 217.064 1346 216.728C1346.6 216.38 1347.07 215.9 1347.41 215.288C1347.75 214.676 1347.93 213.98 1347.93 213.2C1347.93 212.42 1347.75 211.724 1347.41 211.112C1347.07 210.5 1346.6 210.026 1346 209.69C1345.4 209.342 1344.73 209.168 1343.99 209.168C1343.24 209.168 1342.57 209.342 1341.97 209.69C1341.37 210.026 1340.9 210.5 1340.55 211.112C1340.21 211.724 1340.04 212.42 1340.04 213.2C1340.04 213.98 1340.21 214.676 1340.55 215.288C1340.9 215.9 1341.37 216.38 1341.97 216.728C1342.57 217.064 1343.24 217.232 1343.99 217.232ZM1364.76 206.9L1359.31 219.5H1356.43L1350.99 206.9H1354.14L1357.98 215.9L1361.87 206.9H1364.76ZM1375.57 217.16V219.5H1365.82V206.9H1375.34V209.24H1368.71V211.976H1374.56V214.244H1368.71V217.16H1375.57ZM1389.36 219.5L1389.34 211.94L1385.63 218.168H1384.32L1380.63 212.102V219.5H1377.89V206.9H1380.3L1385.02 214.73L1389.66 206.9H1392.06L1392.09 219.5H1389.36ZM1404.84 217.16V219.5H1395.08V206.9H1404.61V209.24H1397.98V211.976H1403.83V214.244H1397.98V217.16H1404.84ZM1418.72 206.9V219.5H1416.32L1410.04 211.85V219.5H1407.16V206.9H1409.57L1415.84 214.55V206.9H1418.72ZM1424.31 209.276H1420.28V206.9H1431.26V209.276H1427.22V219.5H1424.31V209.276Z" fill="#BBBBBB"/>
<path d="M388.41 304.24V307.57H394.242V309.91H388.41V314.5H385.494V301.9H395.016V304.24H388.41ZM405.018 314.5L402.588 310.99H402.444H399.906V314.5H396.99V301.9H402.444C403.56 301.9 404.526 302.086 405.342 302.458C406.17 302.83 406.806 303.358 407.25 304.042C407.694 304.726 407.916 305.536 407.916 306.472C407.916 307.408 407.688 308.218 407.232 308.902C406.788 309.574 406.152 310.09 405.324 310.45L408.15 314.5H405.018ZM404.964 306.472C404.964 305.764 404.736 305.224 404.28 304.852C403.824 304.468 403.158 304.276 402.282 304.276H399.906V308.668H402.282C403.158 308.668 403.824 308.476 404.28 308.092C404.736 307.708 404.964 307.168 404.964 306.472ZM419.982 312.16V314.5H410.226V301.9H419.748V304.24H413.124V306.976H418.974V309.244H413.124V312.16H419.982ZM432.059 312.16V314.5H422.303V301.9H431.825V304.24H425.201V306.976H431.051V309.244H425.201V312.16H432.059ZM439.476 301.9H445.2C446.568 301.9 447.774 302.164 448.818 302.692C449.874 303.208 450.69 303.94 451.266 304.888C451.854 305.836 452.148 306.94 452.148 308.2C452.148 309.46 451.854 310.564 451.266 311.512C450.69 312.46 449.874 313.198 448.818 313.726C447.774 314.242 446.568 314.5 445.2 314.5H439.476V301.9ZM445.056 312.106C446.316 312.106 447.318 311.758 448.062 311.062C448.818 310.354 449.196 309.4 449.196 308.2C449.196 307 448.818 306.052 448.062 305.356C447.318 304.648 446.316 304.294 445.056 304.294H442.392V312.106H445.056ZM462.47 311.8H456.62L455.504 314.5H452.516L458.132 301.9H461.012L466.646 314.5H463.586L462.47 311.8ZM461.552 309.586L459.554 304.762L457.556 309.586H461.552ZM469.93 304.276H465.898V301.9H476.878V304.276H472.846V314.5H469.93V304.276ZM486.112 311.8H480.262L479.146 314.5H476.158L481.774 301.9H484.654L490.288 314.5H487.228L486.112 311.8ZM485.194 309.586L483.196 304.762L481.198 309.586H485.194ZM508.159 314.5L508.141 306.94L504.433 313.168H503.119L499.429 307.102V314.5H496.693V301.9H499.105L503.821 309.73L508.465 301.9H510.859L510.895 314.5H508.159ZM519.987 314.716C518.679 314.716 517.497 314.434 516.441 313.87C515.397 313.306 514.575 312.532 513.975 311.548C513.387 310.552 513.093 309.436 513.093 308.2C513.093 306.964 513.387 305.854 513.975 304.87C514.575 303.874 515.397 303.094 516.441 302.53C517.497 301.966 518.679 301.684 519.987 301.684C521.295 301.684 522.471 301.966 523.515 302.53C524.559 303.094 525.381 303.874 525.981 304.87C526.581 305.854 526.881 306.964 526.881 308.2C526.881 309.436 526.581 310.552 525.981 311.548C525.381 312.532 524.559 313.306 523.515 313.87C522.471 314.434 521.295 314.716 519.987 314.716ZM519.987 312.232C520.731 312.232 521.403 312.064 522.003 311.728C522.603 311.38 523.071 310.9 523.407 310.288C523.755 309.676 523.929 308.98 523.929 308.2C523.929 307.42 523.755 306.724 523.407 306.112C523.071 305.5 522.603 305.026 522.003 304.69C521.403 304.342 520.731 304.168 519.987 304.168C519.243 304.168 518.571 304.342 517.971 304.69C517.371 305.026 516.897 305.5 516.549 306.112C516.213 306.724 516.045 307.42 516.045 308.2C516.045 308.98 516.213 309.676 516.549 310.288C516.897 310.9 517.371 311.38 517.971 311.728C518.571 312.064 519.243 312.232 519.987 312.232ZM540.764 301.9L535.31 314.5H532.43L526.994 301.9H530.144L533.978 310.9L537.866 301.9H540.764ZM551.572 312.16V314.5H541.816V301.9H551.338V304.24H544.714V306.976H550.564V309.244H544.714V312.16H551.572ZM565.358 314.5L565.34 306.94L561.632 313.168H560.318L556.628 307.102V314.5H553.892V301.9H556.304L561.02 309.73L565.664 301.9H568.058L568.094 314.5H565.358ZM580.84 312.16V314.5H571.084V301.9H580.606V304.24H573.982V306.976H579.832V309.244H573.982V312.16H580.84ZM594.716 301.9V314.5H592.322L586.04 306.85V314.5H583.16V301.9H585.572L591.836 309.55V301.9H594.716ZM600.307 304.276H596.275V301.9H607.255V304.276H603.223V314.5H600.307V304.276Z" fill="#BBBBBB"/>
<path d="M612.41 304.24V307.57H618.242V309.91H612.41V314.5H609.494V301.9H619.016V304.24H612.41ZM629.018 314.5L626.588 310.99H626.444H623.906V314.5H620.99V301.9H626.444C627.56 301.9 628.526 302.086 629.342 302.458C630.17 302.83 630.806 303.358 631.25 304.042C631.694 304.726 631.916 305.536 631.916 306.472C631.916 307.408 631.688 308.218 631.232 308.902C630.788 309.574 630.152 310.09 629.324 310.45L632.15 314.5H629.018ZM628.964 306.472C628.964 305.764 628.736 305.224 628.28 304.852C627.824 304.468 627.158 304.276 626.282 304.276H623.906V308.668H626.282C627.158 308.668 627.824 308.476 628.28 308.092C628.736 307.708 628.964 307.168 628.964 306.472ZM643.982 312.16V314.5H634.226V301.9H643.748V304.24H637.124V306.976H642.974V309.244H637.124V312.16H643.982ZM656.059 312.16V314.5H646.303V301.9H655.825V304.24H649.201V306.976H655.051V309.244H649.201V312.16H656.059ZM663.476 301.9H669.2C670.568 301.9 671.774 302.164 672.818 302.692C673.874 303.208 674.69 303.94 675.266 304.888C675.854 305.836 676.148 306.94 676.148 308.2C676.148 309.46 675.854 310.564 675.266 311.512C674.69 312.46 673.874 313.198 672.818 313.726C671.774 314.242 670.568 314.5 669.2 314.5H663.476V301.9ZM669.056 312.106C670.316 312.106 671.318 311.758 672.062 311.062C672.818 310.354 673.196 309.4 673.196 308.2C673.196 307 672.818 306.052 672.062 305.356C671.318 304.648 670.316 304.294 669.056 304.294H666.392V312.106H669.056ZM686.47 311.8H680.62L679.504 314.5H676.516L682.132 301.9H685.012L690.646 314.5H687.586L686.47 311.8ZM685.552 309.586L683.554 304.762L681.556 309.586H685.552ZM693.93 304.276H689.898V301.9H700.878V304.276H696.846V314.5H693.93V304.276ZM710.112 311.8H704.262L703.146 314.5H700.158L705.774 301.9H708.654L714.288 314.5H711.228L710.112 311.8ZM709.194 309.586L707.196 304.762L705.198 309.586H709.194ZM732.159 314.5L732.141 306.94L728.433 313.168H727.119L723.429 307.102V314.5H720.693V301.9H723.105L727.821 309.73L732.465 301.9H734.859L734.895 314.5H732.159ZM743.987 314.716C742.679 314.716 741.497 314.434 740.441 313.87C739.397 313.306 738.575 312.532 737.975 311.548C737.387 310.552 737.093 309.436 737.093 308.2C737.093 306.964 737.387 305.854 737.975 304.87C738.575 303.874 739.397 303.094 740.441 302.53C741.497 301.966 742.679 301.684 743.987 301.684C745.295 301.684 746.471 301.966 747.515 302.53C748.559 303.094 749.381 303.874 749.981 304.87C750.581 305.854 750.881 306.964 750.881 308.2C750.881 309.436 750.581 310.552 749.981 311.548C749.381 312.532 748.559 313.306 747.515 313.87C746.471 314.434 745.295 314.716 743.987 314.716ZM743.987 312.232C744.731 312.232 745.403 312.064 746.003 311.728C746.603 311.38 747.071 310.9 747.407 310.288C747.755 309.676 747.929 308.98 747.929 308.2C747.929 307.42 747.755 306.724 747.407 306.112C747.071 305.5 746.603 305.026 746.003 304.69C745.403 304.342 744.731 304.168 743.987 304.168C743.243 304.168 742.571 304.342 741.971 304.69C741.371 305.026 740.897 305.5 740.549 306.112C740.213 306.724 740.045 307.42 740.045 308.2C740.045 308.98 740.213 309.676 740.549 310.288C740.897 310.9 741.371 311.38 741.971 311.728C742.571 312.064 743.243 312.232 743.987 312.232ZM764.764 301.9L759.31 314.5H756.43L750.994 301.9H754.144L757.978 310.9L761.866 301.9H764.764ZM775.572 312.16V314.5H765.816V301.9H775.338V304.24H768.714V306.976H774.564V309.244H768.714V312.16H775.572ZM789.358 314.5L789.34 306.94L785.632 313.168H784.318L780.628 307.102V314.5H777.892V301.9H780.304L785.02 309.73L789.664 301.9H792.058L792.094 314.5H789.358ZM804.84 312.16V314.5H795.084V301.9H804.606V304.24H797.982V306.976H803.832V309.244H797.982V312.16H804.84ZM818.716 301.9V314.5H816.322L810.04 306.85V314.5H807.16V301.9H809.572L815.836 309.55V301.9H818.716ZM824.307 304.276H820.275V301.9H831.255V304.276H827.223V314.5H824.307V304.276Z" fill="#BBBBBB"/>
<path d="M836.41 304.24V307.57H842.242V309.91H836.41V314.5H833.494V301.9H843.016V304.24H836.41ZM853.018 314.5L850.588 310.99H850.444H847.906V314.5H844.99V301.9H850.444C851.56 301.9 852.526 302.086 853.342 302.458C854.17 302.83 854.806 303.358 855.25 304.042C855.694 304.726 855.916 305.536 855.916 306.472C855.916 307.408 855.688 308.218 855.232 308.902C854.788 309.574 854.152 310.09 853.324 310.45L856.15 314.5H853.018ZM852.964 306.472C852.964 305.764 852.736 305.224 852.28 304.852C851.824 304.468 851.158 304.276 850.282 304.276H847.906V308.668H850.282C851.158 308.668 851.824 308.476 852.28 308.092C852.736 307.708 852.964 307.168 852.964 306.472ZM867.982 312.16V314.5H858.226V301.9H867.748V304.24H861.124V306.976H866.974V309.244H861.124V312.16H867.982ZM880.059 312.16V314.5H870.303V301.9H879.825V304.24H873.201V306.976H879.051V309.244H873.201V312.16H880.059ZM887.476 301.9H893.2C894.568 301.9 895.774 302.164 896.818 302.692C897.874 303.208 898.69 303.94 899.266 304.888C899.854 305.836 900.148 306.94 900.148 308.2C900.148 309.46 899.854 310.564 899.266 311.512C898.69 312.46 897.874 313.198 896.818 313.726C895.774 314.242 894.568 314.5 893.2 314.5H887.476V301.9ZM893.056 312.106C894.316 312.106 895.318 311.758 896.062 311.062C896.818 310.354 897.196 309.4 897.196 308.2C897.196 307 896.818 306.052 896.062 305.356C895.318 304.648 894.316 304.294 893.056 304.294H890.392V312.106H893.056ZM910.47 311.8H904.62L903.504 314.5H900.516L906.132 301.9H909.012L914.646 314.5H911.586L910.47 311.8ZM909.552 309.586L907.554 304.762L905.556 309.586H909.552ZM917.93 304.276H913.898V301.9H924.878V304.276H920.846V314.5H917.93V304.276ZM934.112 311.8H928.262L927.146 314.5H924.158L929.774 301.9H932.654L938.288 314.5H935.228L934.112 311.8ZM933.194 309.586L931.196 304.762L929.198 309.586H933.194ZM956.159 314.5L956.141 306.94L952.433 313.168H951.119L947.429 307.102V314.5H944.693V301.9H947.105L951.821 309.73L956.465 301.9H958.859L958.895 314.5H956.159ZM967.987 314.716C966.679 314.716 965.497 314.434 964.441 313.87C963.397 313.306 962.575 312.532 961.975 311.548C961.387 310.552 961.093 309.436 961.093 308.2C961.093 306.964 961.387 305.854 961.975 304.87C962.575 303.874 963.397 303.094 964.441 302.53C965.497 301.966 966.679 301.684 967.987 301.684C969.295 301.684 970.471 301.966 971.515 302.53C972.559 303.094 973.381 303.874 973.981 304.87C974.581 305.854 974.881 306.964 974.881 308.2C974.881 309.436 974.581 310.552 973.981 311.548C973.381 312.532 972.559 313.306 971.515 313.87C970.471 314.434 969.295 314.716 967.987 314.716ZM967.987 312.232C968.731 312.232 969.403 312.064 970.003 311.728C970.603 311.38 971.071 310.9 971.407 310.288C971.755 309.676 971.929 308.98 971.929 308.2C971.929 307.42 971.755 306.724 971.407 306.112C971.071 305.5 970.603 305.026 970.003 304.69C969.403 304.342 968.731 304.168 967.987 304.168C967.243 304.168 966.571 304.342 965.971 304.69C965.371 305.026 964.897 305.5 964.549 306.112C964.213 306.724 964.045 307.42 964.045 308.2C964.045 308.98 964.213 309.676 964.549 310.288C964.897 310.9 965.371 311.38 965.971 311.728C966.571 312.064 967.243 312.232 967.987 312.232ZM988.764 301.9L983.31 314.5H980.43L974.994 301.9H978.144L981.978 310.9L985.866 301.9H988.764ZM999.572 312.16V314.5H989.816V301.9H999.338V304.24H992.714V306.976H998.564V309.244H992.714V312.16H999.572ZM1013.36 314.5L1013.34 306.94L1009.63 313.168H1008.32L1004.63 307.102V314.5H1001.89V301.9H1004.3L1009.02 309.73L1013.66 301.9H1016.06L1016.09 314.5H1013.36ZM1028.84 312.16V314.5H1019.08V301.9H1028.61V304.24H1021.98V306.976H1027.83V309.244H1021.98V312.16H1028.84ZM1042.72 301.9V314.5H1040.32L1034.04 306.85V314.5H1031.16V301.9H1033.57L1039.84 309.55V301.9H1042.72ZM1048.31 304.276H1044.28V301.9H1055.26V304.276H1051.22V314.5H1048.31V304.276Z" fill="#BBBBBB"/>
<path d="M1060.41 304.24V307.57H1066.24V309.91H1060.41V314.5H1057.49V301.9H1067.02V304.24H1060.41ZM1077.02 314.5L1074.59 310.99H1074.44H1071.91V314.5H1068.99V301.9H1074.44C1075.56 301.9 1076.53 302.086 1077.34 302.458C1078.17 302.83 1078.81 303.358 1079.25 304.042C1079.69 304.726 1079.92 305.536 1079.92 306.472C1079.92 307.408 1079.69 308.218 1079.23 308.902C1078.79 309.574 1078.15 310.09 1077.32 310.45L1080.15 314.5H1077.02ZM1076.96 306.472C1076.96 305.764 1076.74 305.224 1076.28 304.852C1075.82 304.468 1075.16 304.276 1074.28 304.276H1071.91V308.668H1074.28C1075.16 308.668 1075.82 308.476 1076.28 308.092C1076.74 307.708 1076.96 307.168 1076.96 306.472ZM1091.98 312.16V314.5H1082.23V301.9H1091.75V304.24H1085.12V306.976H1090.97V309.244H1085.12V312.16H1091.98ZM1104.06 312.16V314.5H1094.3V301.9H1103.82V304.24H1097.2V306.976H1103.05V309.244H1097.2V312.16H1104.06ZM1111.48 301.9H1117.2C1118.57 301.9 1119.77 302.164 1120.82 302.692C1121.87 303.208 1122.69 303.94 1123.27 304.888C1123.85 305.836 1124.15 306.94 1124.15 308.2C1124.15 309.46 1123.85 310.564 1123.27 311.512C1122.69 312.46 1121.87 313.198 1120.82 313.726C1119.77 314.242 1118.57 314.5 1117.2 314.5H1111.48V301.9ZM1117.06 312.106C1118.32 312.106 1119.32 311.758 1120.06 311.062C1120.82 310.354 1121.2 309.4 1121.2 308.2C1121.2 307 1120.82 306.052 1120.06 305.356C1119.32 304.648 1118.32 304.294 1117.06 304.294H1114.39V312.106H1117.06ZM1134.47 311.8H1128.62L1127.5 314.5H1124.52L1130.13 301.9H1133.01L1138.65 314.5H1135.59L1134.47 311.8ZM1133.55 309.586L1131.55 304.762L1129.56 309.586H1133.55ZM1141.93 304.276H1137.9V301.9H1148.88V304.276H1144.85V314.5H1141.93V304.276ZM1158.11 311.8H1152.26L1151.15 314.5H1148.16L1153.77 301.9H1156.65L1162.29 314.5H1159.23L1158.11 311.8ZM1157.19 309.586L1155.2 304.762L1153.2 309.586H1157.19ZM1180.16 314.5L1180.14 306.94L1176.43 313.168H1175.12L1171.43 307.102V314.5H1168.69V301.9H1171.11L1175.82 309.73L1180.47 301.9H1182.86L1182.9 314.5H1180.16ZM1191.99 314.716C1190.68 314.716 1189.5 314.434 1188.44 313.87C1187.4 313.306 1186.57 312.532 1185.97 311.548C1185.39 310.552 1185.09 309.436 1185.09 308.2C1185.09 306.964 1185.39 305.854 1185.97 304.87C1186.57 303.874 1187.4 303.094 1188.44 302.53C1189.5 301.966 1190.68 301.684 1191.99 301.684C1193.29 301.684 1194.47 301.966 1195.51 302.53C1196.56 303.094 1197.38 303.874 1197.98 304.87C1198.58 305.854 1198.88 306.964 1198.88 308.2C1198.88 309.436 1198.58 310.552 1197.98 311.548C1197.38 312.532 1196.56 313.306 1195.51 313.87C1194.47 314.434 1193.29 314.716 1191.99 314.716ZM1191.99 312.232C1192.73 312.232 1193.4 312.064 1194 311.728C1194.6 311.38 1195.07 310.9 1195.41 310.288C1195.75 309.676 1195.93 308.98 1195.93 308.2C1195.93 307.42 1195.75 306.724 1195.41 306.112C1195.07 305.5 1194.6 305.026 1194 304.69C1193.4 304.342 1192.73 304.168 1191.99 304.168C1191.24 304.168 1190.57 304.342 1189.97 304.69C1189.37 305.026 1188.9 305.5 1188.55 306.112C1188.21 306.724 1188.04 307.42 1188.04 308.2C1188.04 308.98 1188.21 309.676 1188.55 310.288C1188.9 310.9 1189.37 311.38 1189.97 311.728C1190.57 312.064 1191.24 312.232 1191.99 312.232ZM1212.76 301.9L1207.31 314.5H1204.43L1198.99 301.9H1202.14L1205.98 310.9L1209.87 301.9H1212.76ZM1223.57 312.16V314.5H1213.82V301.9H1223.34V304.24H1216.71V306.976H1222.56V309.244H1216.71V312.16H1223.57ZM1237.36 314.5L1237.34 306.94L1233.63 313.168H1232.32L1228.63 307.102V314.5H1225.89V301.9H1228.3L1233.02 309.73L1237.66 301.9H1240.06L1240.09 314.5H1237.36ZM1252.84 312.16V314.5H1243.08V301.9H1252.61V304.24H1245.98V306.976H1251.83V309.244H1245.98V312.16H1252.84ZM1266.72 301.9V314.5H1264.32L1258.04 306.85V314.5H1255.16V301.9H1257.57L1263.84 309.55V301.9H1266.72ZM1272.31 304.276H1268.28V301.9H1279.26V304.276H1275.22V314.5H1272.31V304.276Z" fill="#BBBBBB"/>
<path d="M1284.41 304.24V307.57H1290.24V309.91H1284.41V314.5H1281.49V301.9H1291.02V304.24H1284.41ZM1301.02 314.5L1298.59 310.99H1298.44H1295.91V314.5H1292.99V301.9H1298.44C1299.56 301.9 1300.53 302.086 1301.34 302.458C1302.17 302.83 1302.81 303.358 1303.25 304.042C1303.69 304.726 1303.92 305.536 1303.92 306.472C1303.92 307.408 1303.69 308.218 1303.23 308.902C1302.79 309.574 1302.15 310.09 1301.32 310.45L1304.15 314.5H1301.02ZM1300.96 306.472C1300.96 305.764 1300.74 305.224 1300.28 304.852C1299.82 304.468 1299.16 304.276 1298.28 304.276H1295.91V308.668H1298.28C1299.16 308.668 1299.82 308.476 1300.28 308.092C1300.74 307.708 1300.96 307.168 1300.96 306.472ZM1315.98 312.16V314.5H1306.23V301.9H1315.75V304.24H1309.12V306.976H1314.97V309.244H1309.12V312.16H1315.98ZM1328.06 312.16V314.5H1318.3V301.9H1327.82V304.24H1321.2V306.976H1327.05V309.244H1321.2V312.16H1328.06ZM1335.48 301.9H1341.2C1342.57 301.9 1343.77 302.164 1344.82 302.692C1345.87 303.208 1346.69 303.94 1347.27 304.888C1347.85 305.836 1348.15 306.94 1348.15 308.2C1348.15 309.46 1347.85 310.564 1347.27 311.512C1346.69 312.46 1345.87 313.198 1344.82 313.726C1343.77 314.242 1342.57 314.5 1341.2 314.5H1335.48V301.9ZM1341.06 312.106C1342.32 312.106 1343.32 311.758 1344.06 311.062C1344.82 310.354 1345.2 309.4 1345.2 308.2C1345.2 307 1344.82 306.052 1344.06 305.356C1343.32 304.648 1342.32 304.294 1341.06 304.294H1338.39V312.106H1341.06ZM1358.47 311.8H1352.62L1351.5 314.5H1348.52L1354.13 301.9H1357.01L1362.65 314.5H1359.59L1358.47 311.8ZM1357.55 309.586L1355.55 304.762L1353.56 309.586H1357.55ZM1365.93 304.276H1361.9V301.9H1372.88V304.276H1368.85V314.5H1365.93V304.276ZM1382.11 311.8H1376.26L1375.15 314.5H1372.16L1377.77 301.9H1380.65L1386.29 314.5H1383.23L1382.11 311.8ZM1381.19 309.586L1379.2 304.762L1377.2 309.586H1381.19ZM1404.16 314.5L1404.14 306.94L1400.43 313.168H1399.12L1395.43 307.102V314.5H1392.69V301.9H1395.11L1399.82 309.73L1404.47 301.9H1406.86L1406.9 314.5H1404.16ZM1415.99 314.716C1414.68 314.716 1413.5 314.434 1412.44 313.87C1411.4 313.306 1410.57 312.532 1409.97 311.548C1409.39 310.552 1409.09 309.436 1409.09 308.2C1409.09 306.964 1409.39 305.854 1409.97 304.87C1410.57 303.874 1411.4 303.094 1412.44 302.53C1413.5 301.966 1414.68 301.684 1415.99 301.684C1417.29 301.684 1418.47 301.966 1419.51 302.53C1420.56 303.094 1421.38 303.874 1421.98 304.87C1422.58 305.854 1422.88 306.964 1422.88 308.2C1422.88 309.436 1422.58 310.552 1421.98 311.548C1421.38 312.532 1420.56 313.306 1419.51 313.87C1418.47 314.434 1417.29 314.716 1415.99 314.716ZM1415.99 312.232C1416.73 312.232 1417.4 312.064 1418 311.728C1418.6 311.38 1419.07 310.9 1419.41 310.288C1419.75 309.676 1419.93 308.98 1419.93 308.2C1419.93 307.42 1419.75 306.724 1419.41 306.112C1419.07 305.5 1418.6 305.026 1418 304.69C1417.4 304.342 1416.73 304.168 1415.99 304.168C1415.24 304.168 1414.57 304.342 1413.97 304.69C1413.37 305.026 1412.9 305.5 1412.55 306.112C1412.21 306.724 1412.04 307.42 1412.04 308.2C1412.04 308.98 1412.21 309.676 1412.55 310.288C1412.9 310.9 1413.37 311.38 1413.97 311.728C1414.57 312.064 1415.24 312.232 1415.99 312.232ZM1436.76 301.9L1431.31 314.5H1428.43L1422.99 301.9H1426.14L1429.98 310.9L1433.87 301.9H1436.76ZM1447.57 312.16V314.5H1437.82V301.9H1447.34V304.24H1440.71V306.976H1446.56V309.244H1440.71V312.16H1447.57ZM1461.36 314.5L1461.34 306.94L1457.63 313.168H1456.32L1452.63 307.102V314.5H1449.89V301.9H1452.3L1457.02 309.73L1461.66 301.9H1464.06L1464.09 314.5H1461.36ZM1476.84 312.16V314.5H1467.08V301.9H1476.61V304.24H1469.98V306.976H1475.83V309.244H1469.98V312.16H1476.84ZM1490.72 301.9V314.5H1488.32L1482.04 306.85V314.5H1479.16V301.9H1481.57L1487.84 309.55V301.9H1490.72ZM1496.31 304.276H1492.28V301.9H1503.26V304.276H1499.22V314.5H1496.31V304.276Z" fill="#BBBBBB"/>
</g>
<defs>
<clipPath id="clip0_156_865">
<rect width="1368" height="522" fill="white"/>
</clipPath>
</defs>
</svg>
